<?xml version="1.0" encoding="UTF-8"?>
<svg id="_レイヤー_2" data-name="レイヤー 2" xmlns="http://www.w3.org/2000/svg" width="339.66" height="184.19" viewBox="0 0 339.66 184.19">
  <defs>
    <style>
      .cls-1 {
        fill: #211815;
      }

      .cls-2 {
        fill: #f5f19b;
      }

      .cls-3 {
        fill: #e0a99c;
      }

      .cls-4 {
        fill: #ecbb6e;
      }

      .cls-5 {
        fill: #93c9ce;
      }

      .cls-6 {
        fill: #5c948d;
      }

      .cls-7 {
        fill: #fffba1;
      }

      .cls-8, .cls-9 {
        fill: #fff;
      }

      .cls-10 {
        fill: #def7c8;
      }

      .cls-11 {
        fill: #de8a4c;
      }

      .cls-12 {
        fill: #ceeaeb;
      }

      .cls-13 {
        fill: #f2d496;
      }

      .cls-9 {
        stroke: #ceeaeb;
        stroke-miterlimit: 10;
        stroke-width: 2.83px;
      }
    </style>
  </defs>
  <g id="_レイヤー_1-2" data-name="レイヤー 1">
    <g>
      <path class="cls-9" d="M9.89,74.66h239.38c4.68,0,8.47,3.79,8.47,8.47v66.99s9.69,9.69,9.69,9.69h-9.69s0,.5,0,.5c0,4.68-3.79,8.47-8.47,8.47H9.89c-4.68,0-8.47-3.79-8.47-8.47v-77.18c0-4.68,3.79-8.47,8.47-8.47Z"/>
      <g>
        <path d="M17.14,95.03c-.96.6-1.29.78-2.31,1.24-.25-.58-.48-.97-.84-1.48,1.53-.6,2.54-1.15,3.62-2,.96-.73,1.68-1.51,2.28-2.43h1.7c.76,1.06,1.35,1.63,2.45,2.4,1.21.87,2.4,1.48,3.7,1.95-.4.62-.6,1.02-.81,1.62-.9-.39-1.46-.69-2.45-1.32v1.12c-.39-.04-.75-.06-1.29-.06h-4.82c-.41,0-.84.02-1.23.06v-1.11ZM16.35,98.73c-.75,0-1.23.03-1.7.09v-1.66c.45.04,1.02.07,1.7.07h8.95c.72,0,1.21-.03,1.7-.07v1.66c-.48-.06-.96-.09-1.7-.09h-4.93c-.48,1.1-.93,1.94-1.5,2.79q2.49-.14,4.56-.36c-.46-.51-.72-.78-1.51-1.59l1.42-.63c1.54,1.56,2.17,2.29,3.33,3.82l-1.39.92c-.41-.61-.53-.79-.86-1.24-1.2.15-2.05.25-2.59.3-1.5.15-4.23.4-4.84.45-.81.04-1.53.12-1.86.19l-.22-1.75c.43.03.62.04.81.04.12,0,.56-.02,1.29-.06.71-1.08,1.16-1.94,1.53-2.88h-2.17ZM23.17,94.58c.2,0,.33,0,.63-.02-1.3-.87-2.14-1.65-3.01-2.8-.75,1.02-1.62,1.84-2.98,2.8.24.02.36.02.58.02h4.78Z"/>
        <path d="M32.34,102.14c0,.68.02,1.05.09,1.47h-1.74c.06-.44.09-.83.09-1.5v-3.61c-.58.52-.88.75-1.6,1.23-.18-.56-.44-1.08-.74-1.5,1-.58,1.69-1.12,2.47-1.95.67-.71,1.09-1.3,1.56-2.22h-2.34c-.51,0-.85.02-1.2.06v-1.6c.38.04.66.06,1.12.06h.73v-1.2c0-.39-.03-.76-.09-1.09h1.72c-.06.31-.07.66-.07,1.11v1.19h.6c.43,0,.6-.02.83-.04l.69.75c-.12.19-.21.37-.31.61-.48,1.05-.74,1.48-1.44,2.46.67.77,1.33,1.29,2.28,1.81-.33.46-.54.85-.78,1.42-.76-.48-1.21-.88-1.88-1.62v4.17ZM38.46,101.45h1.72c.72,0,1.21-.03,1.65-.07v1.72c-.51-.06-1.07-.09-1.65-.09h-4.92c-.6,0-1.12.03-1.62.09v-1.72c.45.04.96.07,1.63.07h1.58v-5.62h-1.08c-.48,0-.96.03-1.41.07v-1.63c.41.06.81.08,1.41.08h1.08v-2.54c0-.6-.03-.94-.09-1.5h1.79c-.08.57-.09.85-.09,1.5v2.54h1.51c.66,0,1.04-.02,1.42-.08v1.63c-.46-.04-.92-.07-1.42-.07h-1.51v5.62Z"/>
        <path d="M48.94,99.95c-.72,1.25-1.71,1.94-2.73,1.94-1.56,0-2.67-1.53-2.67-3.66,0-2.37,1.2-4.41,3.25-5.49,1-.54,2.08-.78,3.51-.78,3.14,0,5.46,2.22,5.46,5.19,0,2.62-1.29,4.51-3.78,5.58-.5.21-.89.33-1.08.33-.18,0-.25-.06-.45-.34-.25-.39-.54-.68-.95-.95,3.09-.79,4.49-2.25,4.49-4.68,0-1.25-.53-2.29-1.46-2.96-.53-.36-.95-.51-1.77-.64-.42,3.16-.92,4.89-1.83,6.46ZM46.78,94.64c-1,.88-1.58,2.15-1.58,3.55,0,1.16.38,1.83,1,1.83.75,0,1.52-1.04,2.08-2.82.36-1.12.54-1.98.77-3.65-1.07.23-1.59.48-2.28,1.08Z"/>
        <path d="M65.05,91.19v11.49h-1.8v-11.49h1.8Z"/>
        <path d="M74.44,95.9c0-.3-.02-.54-.04-.84.29.03.6.04,1,.04h3.17v-1.88h-3.03c-.74,1.14-1.46,2.01-2.38,2.83-.41-.61-.57-.81-1.05-1.29,1.47-1.24,2.21-2.19,2.8-3.6.2-.46.3-.78.34-1.05l1.71.34c-.04.09-.25.54-.63,1.33h6.73c.71,0,1.05-.02,1.49-.08v1.58c-.45-.06-.84-.08-1.49-.08h-2.91v1.88h2.29c.67,0,1.05-.02,1.48-.06v1.52c-.39-.04-.82-.06-1.44-.06h-2.34v2.35h3.31c.69,0,1.12-.03,1.59-.09v1.63c-.45-.06-.96-.09-1.59-.09h-3.31v1.78c0,.73.01,1.14.09,1.54h-1.77c.06-.42.09-.79.09-1.56v-1.77h-4.84c-.63,0-1.11.03-1.58.09v-1.63c.46.06.9.09,1.58.09h.72v-2.96ZM78.57,98.85v-2.35h-2.61v2.35h2.61Z"/>
        <path d="M92.32,99.95c-.72,1.25-1.71,1.94-2.73,1.94-1.56,0-2.67-1.53-2.67-3.66,0-2.37,1.2-4.41,3.25-5.49,1-.54,2.08-.78,3.51-.78,3.14,0,5.46,2.22,5.46,5.19,0,2.62-1.29,4.51-3.78,5.58-.5.21-.89.33-1.08.33-.18,0-.25-.06-.45-.34-.25-.39-.54-.68-.95-.95,3.09-.79,4.49-2.25,4.49-4.68,0-1.25-.53-2.29-1.46-2.96-.53-.36-.95-.51-1.77-.64-.42,3.16-.92,4.89-1.83,6.46ZM90.16,94.64c-1,.88-1.58,2.15-1.58,3.55,0,1.16.38,1.83,1,1.83.75,0,1.52-1.04,2.08-2.82.36-1.12.54-1.98.77-3.65-1.07.23-1.59.48-2.28,1.08Z"/>
        <path d="M101.67,94.02c1.09.57,1.68.93,2.69,1.68l-.87,1.32c-.99-.82-1.62-1.24-2.69-1.83l.87-1.17ZM104.38,98.9c-.69,1.75-1.44,3.33-2.13,4.45l-1.39-1.11c.15-.13.31-.34.52-.63.65-.94,1.14-1.98,1.74-3.61l1.26.9ZM102.24,90.38c1.21.78,1.62,1.09,2.55,1.89l-.95,1.23c-.88-.82-1.46-1.27-2.58-1.99l.98-1.12ZM108.42,92.72c-1.47.18-1.75.19-2.97.27-.12-.56-.24-.84-.57-1.42,3.18-.08,6.39-.6,7.75-1.28l1.06,1.46q-.24.06-.71.18c-.69.19-2.02.45-3.01.6v1.9h2.5c.71,0,1.19-.03,1.61-.09v1.65c-.39-.06-.92-.09-1.59-.09h-2.52v1.86h2.17c.5,0,.89-.01,1.16-.04-.04.31-.06.78-.06,1.29v3.09c0,.58.03,1.05.07,1.47h-1.63v-.71h-4.81v.71h-1.59c.03-.38.06-.93.06-1.49v-3.13c0-.46-.01-.88-.04-1.23.32.03.63.04,1.12.04h2v-1.86h-2.24c-.61,0-1.17.03-1.6.09v-1.65c.42.06.93.09,1.6.09h2.24v-1.71ZM106.87,101.39h4.81v-2.22h-4.81v2.22Z"/>
        <path d="M118.56,92.03c-.75.06-1.42.1-2.46.17-.12-.41-.22-.65-.51-1.16,2.79,0,5.28-.3,6.27-.76l.86,1.17c-.08.02-.11.02-.2.03q-.12.02-.34.06s-.12.02-.24.04c-.57.1-1.27.21-1.96.3v.81h1.5c.66,0,1.02-.01,1.32-.06v1.29c-.23-.03-.42-.04-1.04-.04h-1.79v.62h1.41c.64,0,.93-.02,1.21-.03-.03.25-.04.54-.04,1.26v1.95c.01.67.03,1.11.04,1.31-.33-.03-.62-.03-1.3-.03h-1.32v.65h1.26c.72,0,1.02-.02,1.35-.04v1.32c-.27-.04-.45-.06-1-.06h-1.61v.71c.72-.06,1.19-.12,2.58-.31v.61c.63-.94,1.09-2.08,1.35-3.31.23-1.05.32-1.88.39-3.78-.6,0-.83.02-1.2.06v-1.56c.3.04.53.06,1.02.06h.23v-1.05c0-1.2-.02-1.44-.09-1.83h1.66c-.06.31-.07.6-.09,1.18,0,.1,0,.75-.01,1.7h1.25c.62,0,.94-.02,1.35-.06-.06.52-.06.63-.1,2.7-.06,3.71-.25,5.74-.62,6.57-.25.63-.74.85-1.77.85-.22,0-.94-.03-1.17-.04-.04-.65-.1-.93-.33-1.56-.36.73-.58,1.12-1.17,1.89-.29-.43-.66-.81-1.11-1.14-2.08.3-2.99.4-5.66.61-.28.03-.51.04-.85.1l-.25-1.53c.33.03.43.03.76.03.63,0,.87-.01,2.43-.1v-.79h-1.47c-.46,0-.96.02-1.35.06v-1.33c.41.04.71.06,1.35.06h1.47v-.65h-1.24c-.65,0-.95.02-1.4.03.03-.36.04-.66.04-1.35v-1.88c0-.66-.01-.98-.04-1.3.36.03.79.04,1.41.04h1.23v-.62h-1.75c-.6,0-.92.02-1.33.06v-1.32c.39.06.75.07,1.35.07h1.74v-.66ZM117.31,95.57v.62h1.24v-.62h-1.24ZM117.31,97.23v.63h1.24v-.63h-1.24ZM119.97,96.18h1.25v-.62h-1.25v.62ZM119.97,97.86h1.25v-.63h-1.25v.63ZM125.76,94.71c-.15,3.45-.46,5.15-1.35,7.02.64.1.97.13,1.27.13.65,0,.75-.18.92-1.51.11-.75.13-1.37.2-2.97q.03-.51.04-1.69c0-.42.01-.52.01-.98h-1.09Z"/>
        <path d="M139.53,92.66c2.03,0,3.3,1.21,3.3,3.17s-1.41,3.09-3.75,3.09c-.51,0-1.04-.06-1.23-.14-.12-.04-.18-.12-.21-.25-.1-.5-.3-.98-.66-1.57.93.22,1.5.31,2.13.31,1.21,0,1.94-.56,1.94-1.52,0-.38-.11-.75-.25-.96-.27-.38-.86-.61-1.53-.61-.86,0-2.04.38-4.51,1.44q.94,2.35,1.47,3.79c.63,1.7,1.16,3.23,1.16,3.36,0,.12-.09.2-.39.33-.43.2-.99.38-1.18.38-.15,0-.17-.03-.32-.58-.69-2.52-1.3-4.35-2.22-6.58-1.14.52-1.68.82-2,1.12-.09.07-.18.12-.28.12-.2,0-.38-.15-.66-.55-.3-.42-.42-.65-.67-1.12.96-.27,1.57-.48,2.98-1.06-.78-1.79-.88-2-1.47-2.75.96-.38,1.5-.54,1.84-.54.32,0,.39.09.43.5.05.42.08.57.26.99.01.03.15.34.46,1.15,1.32-.54,1.78-.72,2.77-1.04-.06-.03-.08-.04-.12-.1-.51-.66-.82-.99-1.48-1.54-.03-.06-.04-.09-.04-.13q0-.09.51-.54c.2-.18.5-.36.58-.36.08,0,.15.03.24.09.92.69,1.54,1.32,1.54,1.57,0,.12-.45.62-.81.89.83-.23,1.54-.33,2.17-.33Z"/>
        <path d="M144.7,99.77c.27-.24.34-.3.45-.3.19,0,1.09.66,1.75,1.29.75.69,1.59,1.69,1.59,1.9,0,.14-.03.17-.46.56-.57.52-.69.62-.79.62-.09,0-.18-.06-.25-.21-.53-.93-1.73-2.16-2.79-2.85-.12-.09-.18-.15-.18-.24,0-.1.03-.15.69-.76Z"/>
        <path d="M165.91,100.67c1.23,0,2.59-.18,3.94-.52.08-.03.12-.03.17-.03.09,0,.13.06.17.2.04.33.08.81.08,1.3,0,.3-.03.39-.17.45-.45.24-2.47.46-4.21.46-2.26,0-3.55-.38-4.59-1.35-.5-.46-.99-1.27-.99-1.6,0-.22.13-.31,1.37-1.02.54,1.49,1.79,2.12,4.25,2.12ZM166.05,92.04c.87,0,1.38-.03,2.4-.18h.11c.12,0,.17.04.2.13.03.18.06.63.06,1.17,0,.35-.03.47-.12.53-.12.07-1.42.17-2.43.17-1.33,0-2.45-.11-3.69-.35-.85-.17-.9-.21-.9-.73,0-.35.03-.92.08-1.33,1.3.4,2.73.6,4.3.6Z"/>
        <path d="M176.19,94.86c-.67.13-1.32.3-1.74.45-.11.04-.2.06-.27.06-.13,0-.21-.07-.3-.33-.1-.33-.21-.85-.27-1.38.22.02.33.03.46.03.57,0,1.18-.08,2.13-.26l.03-.9c.02-.21.02-.36.02-.4,0-.65-.02-1.04-.08-1.44.79.03,1.29.09,1.77.21.2.04.29.13.29.27,0,.06-.01.1-.09.27-.13.28-.15.46-.25,1.71.33.23.62.54.62.69,0,.09-.04.17-.18.33-.22.24-.3.34-.58.76q-.03.39-.03.5c.5-.44.82-.72,1.33-1.09.57-.44,1.2-.84,1.65-1.06.58-.32.99-.42,1.53-.42.79,0,1.37.3,1.68.87.18.36.25.71.25,1.29,0,.51-.03.99-.12,2.08-.12,1.29-.18,2.25-.18,2.83s.13.76.55.76c.6,0,1.33-.44,1.98-1.17.01.58.06.77.25,1.37.04.12.06.19.06.25,0,.17-.08.3-.33.5-.61.49-1.5.81-2.29.81-1.32,0-1.92-.69-1.92-2.2,0-.69.04-1.58.2-3.67.04-.5.06-.92.06-1.12,0-.62-.21-.9-.66-.9s-1.33.48-2.52,1.39c-.6.45-.94.77-1.57,1.41v.69c0,1.12.07,3.72.13,4.63v.18c0,.12-.02.17-.04.21-.08.09-.51.15-1.2.15-.43,0-.53-.06-.53-.31,0-.09,0-.24.02-.4v-.35q.01-.52.08-3.38-.86,1.11-1.37,1.94c-.13.21-.23.29-.34.29s-.39-.24-.86-.75c-.29-.33-.39-.47-.39-.56,0-.07.03-.13.13-.24.95-.98,1.74-1.91,2.87-3.31l.03-1.27Z"/>
        <path d="M189.34,95.9c-.12.03-.18.06-.27.1-.08.04-.12.06-.2.06-.32,0-.55-.58-.74-1.69.12.02.23.02.29.02.63,0,2.24-.2,3.2-.39.31-1.32.48-2.31.48-3.03,0-.06,0-.14-.01-.25.64.07,1.26.21,1.68.38.24.09.36.22.36.38,0,.07-.02.12-.09.24q-.23.4-.69,2.05c.36-.04.76-.07,1.02-.07.62,0,1.1.12,1.44.36.6.44.9,1.32.9,2.69,0,2.23-.41,4.14-1.1,5.08-.48.66-1.11.98-1.99.98-.54,0-1.05-.07-1.2-.17q-.12-.07-.17-.63c-.04-.4-.13-.75-.32-1.17.78.25.98.3,1.46.3.72,0,1.02-.34,1.35-1.54.23-.79.35-1.83.35-2.92,0-1.17-.29-1.59-1.08-1.59-.27,0-.71.03-1.05.09-.04.17-.06.18-.12.39-.42,1.53-1.19,3.55-1.95,5.17-.79,1.63-.99,1.96-1.18,1.96-.12,0-.53-.21-.96-.5-.35-.21-.44-.3-.44-.42q0-.07.62-1.05c.83-1.27,1.91-3.78,2.28-5.25-1.11.24-1.73.39-1.86.44ZM196.99,94.22c0-.1.14-.24.57-.58.3-.23.45-.31.55-.31.09,0,.17.04.36.24.88.85,1.71,2,2.19,2.98.15.33.24.54.24.63,0,.15-.04.2-.52.58-.3.24-.65.44-.77.44-.1,0-.15-.04-.25-.3-.3-.73-.58-1.31-.94-1.86-.39-.6-.47-.69-1.35-1.64-.06-.09-.08-.13-.08-.18Z"/>
        <path d="M210.61,95.93c2.05,0,3.39,1.21,3.39,3.06s-1.12,3.02-3.37,3.73c-.81.26-2.15.5-2.75.5-.32,0-.39-.08-.6-.51-.16-.35-.34-.56-.79-.87,3.77-.3,5.62-1.26,5.62-2.9,0-.92-.64-1.46-1.72-1.46-1.37,0-2.78.71-3.93,1.95-.21.21-.41.46-.54.69s-.23.3-.36.3c-.22,0-.75-.22-1.11-.49-.18-.14-.24-.24-.24-.48q0-.12.04-.48s0-.15.01-.31c.08-.96.12-1.37.3-2.72q.03-.16.14-.87s.04-.33.12-.89c.01-.13.03-.25.03-.49.72.1,1.4.27,1.68.43.12.06.18.14.17.23,0,.06-.03.1-.07.2-.17.25-.21.39-.35.96-.13.57-.34,1.89-.38,2.38,1.53-1.41,2.87-1.96,4.71-1.96ZM210.34,91.65c.58.34.76.51.76.67,0,.14-.24.58-.5.96-.24.35-.33.42-.45.42-.07,0-.12-.03-.3-.17-1-.76-1.8-1.2-2.92-1.59-.22-.09-.27-.12-.27-.24,0-.15.12-.41.39-.79.24-.36.34-.45.51-.45.36,0,1.83.63,2.78,1.19Z"/>
        <path d="M222.46,99.95c-.72,1.25-1.71,1.94-2.73,1.94-1.56,0-2.67-1.53-2.67-3.66,0-2.37,1.2-4.41,3.25-5.49,1-.54,2.08-.78,3.51-.78,3.14,0,5.46,2.22,5.46,5.19,0,2.62-1.29,4.51-3.78,5.58-.5.21-.89.33-1.08.33-.18,0-.25-.06-.45-.34-.25-.39-.54-.68-.95-.95,3.09-.79,4.49-2.25,4.49-4.68,0-1.25-.53-2.29-1.46-2.96-.53-.36-.95-.51-1.77-.64-.42,3.16-.92,4.89-1.83,6.46ZM220.3,94.64c-1,.88-1.58,2.15-1.58,3.55,0,1.16.38,1.83,1,1.83.75,0,1.52-1.04,2.08-2.82.36-1.12.54-1.98.77-3.65-1.07.23-1.59.48-2.28,1.08Z"/>
        <path d="M236.73,91.53c0-.46-.03-.84-.09-1.19h1.84c-.06.29-.09.68-.09,1.19v.89h3.97c.81,0,1.33-.03,1.82-.1v1.75c-.44-.06-.92-.09-1.77-.09h-5.26q-.01.12-.01.29c-.03.52-.06.81-.11,1.26h3.99c.76,0,1.14-.01,1.5-.06-.02.06-.02.1-.02.14-.03.23-.03.33-.06,1-.08,2.27-.24,3.99-.5,5.05-.33,1.37-.81,1.73-2.25,1.73-.51,0-.84-.02-1.95-.09-.06-.68-.18-1.16-.4-1.68.81.14,1.51.19,2.16.19s.76-.16.96-1.15c.18-.87.25-1.73.31-3.61h-3.97c-.62,2.91-1.89,4.72-4.63,6.52-.36-.63-.62-.95-1.16-1.38,1.28-.78,1.88-1.27,2.58-2.11,1.25-1.5,1.72-3.15,1.8-6.09h-2.35c-.72,0-1.32.03-1.82.09v-1.75c.53.07,1.05.1,1.8.1h3.71v-.89Z"/>
        <path d="M16.59,120.52c-.33,0-.61.02-.88.04v-.66c-.25.23-.39.35-.81.65-.25-.63-.36-.84-.77-1.38,1.4-.9,2.27-1.88,2.88-3.18h1.64c.55,1.11,1,1.56,2.49,2.59-.39.42-.66.81-.88,1.27-.22-.18-.3-.24-.45-.38v1.08c-.3-.03-.48-.04-.9-.04h-.56v1.03h.87c.48,0,.89-.01,1.19-.06v-1.22c.43.06.92.09,1.62.09h1.02v-2.83c0-.73-.03-1.11-.09-1.67h1.79c-.08.54-.09.92-.09,1.67v2.83h1.14c.71,0,1.15-.03,1.63-.09v1.7c-.55-.06-1-.08-1.62-.08h-1.16v5.4c0,.81.02,1.23.09,1.74h-1.79c.06-.51.09-.96.09-1.74v-5.4h-1.05c-.58,0-1.08.03-1.52.08v.97c-.37-.04-.76-.06-1.26-.06h-.87v3.78c.81-.15,1.25-.26,2.33-.54v1.35c-1.47.42-3.17.79-5.44,1.17-.18.03-.35.08-.62.14l-.27-1.65c.66,0,1.29-.06,2.56-.24v-4h-.97c-.6,0-1.02.03-1.43.08v-1.48c.41.06.8.07,1.44.07h.96v-1.03h-.32ZM15.31,126.54c-.2-1.21-.38-1.84-.74-2.8l1.2-.38c.42,1.21.54,1.69.74,2.77l-1.2.4ZM16.59,119.25h2.36c.25,0,.36,0,.55-.02-.75-.66-1.16-1.12-1.65-1.9-.47.82-.79,1.26-1.43,1.92h.17ZM18.64,125.65c.31-.74.51-1.41.66-2.35l1.22.38c-.26,1-.36,1.35-.75,2.34l-1.12-.36Z"/>
        <path d="M35.08,124.45c-1.48.87-1.91,1.31-1.91,1.96,0,.27.11.45.33.58.33.2,1.07.3,2.01.3.81,0,1.93-.08,2.7-.18.32-.04.5-.09,1.09-.24h.08c.11,0,.18.07.23.18.09.31.15.77.15,1.31,0,.23-.08.31-.27.36-.36.08-2.03.17-3.12.17-1.83,0-2.8-.12-3.52-.42-.87-.36-1.31-1.04-1.31-1.98,0-.87.41-1.63,1.21-2.28.65-.51.79-.62,2.18-1.4-.12-.5-.35-.71-.81-.71-.62,0-1.26.24-1.96.71-.43.3-.95.72-1.26,1.03-.45.47-.5.5-.62.5-.15,0-.46-.34-.78-.87-.15-.25-.24-.45-.24-.55,0-.14.03-.17.39-.39,1.23-.82,2.25-1.88,2.87-2.95-1.07.07-1.62.09-2.21.09-.23,0-.27-.04-.34-.3-.05-.2-.12-.99-.14-1.4.51.07.81.09,1.53.09.58,0,1.23-.02,1.91-.04.31-.85.42-1.4.43-2.1,1.33.23,1.95.45,1.95.71,0,.06-.02.09-.06.18-.1.19-.22.43-.42.9q-.03.06-.04.1c.86-.12,1.61-.27,2.13-.39.33-.09.41-.1.48-.1.12,0,.18.04.21.14.06.27.15.96.15,1.17,0,.17-.06.24-.25.28-.48.14-2.13.39-3.51.52-.45.83-.76,1.31-1.23,1.81.67-.31,1.18-.43,1.78-.43.68,0,1.12.39,1.43,1.23,1.48-.81,2.28-1.24,2.37-1.3.69-.4.98-.63,1.31-1,.61.63,1.27,1.57,1.27,1.83,0,.09-.06.15-.25.2-.74.19-2.1.78-4.38,1.89.01.27.04.96.04,1.44v.72c0,.18-.03.27-.1.31-.08.08-.48.12-.93.12-.51,0-.6-.04-.6-.29v-.06c.03-.44.04-1,.04-1.36v-.08Z"/>
        <path d="M52.56,121.41h2.13c.68,0,1.1-.03,1.54-.09v1.63c-.48-.04-.93-.07-1.56-.07h-1.62c.86,1.5,2.1,2.74,3.58,3.58-.48.48-.69.78-.99,1.5-.61-.43-1.05-.85-1.62-1.5-.74-.85-1.05-1.32-1.53-2.22.03.54.04,1,.04,1.44v1.81c0,.67.03,1.2.09,1.67h-1.67c.06-.46.09-1,.09-1.68v-1.71c0-.4.02-.88.04-1.48-.91,1.65-1.93,2.76-3.39,3.73-.38-.71-.58-1-.9-1.36,1.54-.89,2.8-2.17,3.67-3.78h-.95c-.64,0-1.11.03-1.58.09v-.6c-.25.36-.43.69-.61,1.22-.38-.59-.6-1.05-.89-1.8.03.47.06,1.27.06,1.91v3.69c0,.77.03,1.32.09,1.77h-1.67c.06-.46.09-1.02.09-1.77v-3.1c0-.57.02-.93.11-1.86-.44,1.46-.87,2.43-1.52,3.41-.18-.68-.37-1.11-.67-1.6.72-.92,1.47-2.61,1.92-4.35h-.57c-.44,0-.69.02-.96.06v-1.53c.24.04.51.06.96.06h.72v-1.16c0-.76-.01-1.14-.08-1.5h1.65c-.06.39-.08.8-.08,1.5v1.16h.43c.36,0,.54-.02.78-.06v1.42c.57-1.02,1.05-2.52,1.09-3.49l1.46.38c-.06.17-.1.34-.21.79-.08.27-.1.4-.18.69h1.15v-.99c0-.61-.03-.99-.09-1.36h1.68c-.06.36-.09.77-.09,1.36v.99h1.7c.72,0,1.14-.03,1.54-.09v1.58c-.42-.04-.9-.08-1.54-.08h-1.7v1.81ZM49.42,119.59c-.25.62-.39.9-.81,1.6q-.36-.38-1.17-.94c.12-.17.17-.24.24-.35-.2-.03-.44-.04-.71-.04h-.38c.34.79.71,1.4,1.36,2.28v-.82c.45.06.87.09,1.56.09h1.53v-1.81h-1.63Z"/>
        <path d="M59.97,120.04c-.96,0-1.38.02-1.75.06v-1.65c.5.07.93.09,1.73.09h8.32c.75,0,1.23-.03,1.75-.09v1.65c-.5-.04-.92-.06-1.75-.06h-3.36v2.5h2.77c.63,0,1.08-.02,1.54-.08v1.64c-.48-.06-.78-.08-1.5-.08h-2.82v2.98h3.84c.75,0,1.27-.03,1.9-.09v1.71c-.63-.08-1.11-.1-1.88-.1h-9.16c-.86,0-1.32.03-1.95.1v-1.71c.5.06,1.08.09,1.91.09h3.66v-2.98h-2.58c-.77,0-1.14.02-1.64.08v-1.64c.44.06.77.08,1.52.08h2.7v-2.5h-3.25ZM62.61,115.65c1.48.51,1.98.71,3.73,1.54l-1.08,1.29c-1.46-.82-2.53-1.29-3.82-1.67l1.17-1.17Z"/>
        <path d="M73.45,121.74c-.12.03-.18.06-.27.1-.08.04-.12.06-.18.06-.33,0-.57-.57-.75-1.68h.29c.63,0,2.24-.19,3.2-.39.31-1.31.48-2.31.48-3.02,0-.06,0-.15-.01-.25.64.06,1.26.19,1.68.38.24.09.36.21.36.36,0,.08-.02.14-.09.26q-.23.39-.69,2.04c.36-.04.76-.07,1.02-.07.62,0,1.1.12,1.44.36.6.44.9,1.32.9,2.69,0,2.23-.41,4.15-1.1,5.1-.48.66-1.11.98-2,.98-.54,0-1.05-.08-1.2-.17q-.12-.08-.17-.63c-.04-.41-.13-.77-.32-1.19.78.27.98.31,1.46.31.72,0,1.02-.35,1.35-1.56.23-.79.35-1.81.35-2.92,0-1.17-.29-1.59-1.08-1.59-.27,0-.71.04-1.05.09-.04.18-.06.19-.12.39-.42,1.54-1.19,3.55-1.95,5.17-.79,1.63-.99,1.96-1.18,1.96-.12,0-.53-.21-.96-.5-.35-.21-.44-.3-.44-.42q0-.07.62-1.05c.83-1.27,1.91-3.77,2.28-5.25-1.11.25-1.73.39-1.86.44ZM82.87,118.66c-.24.18-.41.25-.48.25-.04,0-.09-.03-.13-.1-.32-.51-.84-1.1-1.28-1.47-.03-.03-.04-.06-.04-.09,0-.06.11-.17.36-.36.25-.18.33-.23.43-.23.24,0,1.56,1.33,1.56,1.58,0,.09-.12.19-.42.42ZM81.28,120.25c0-.1.13-.24.57-.58.3-.23.45-.31.57-.31.2,0,.87.72,1.5,1.6.52.75,1.09,1.81,1.09,2.07,0,.15-.04.19-.52.58-.3.24-.65.44-.77.44-.1,0-.15-.04-.25-.3-.29-.72-.54-1.21-.95-1.86-.4-.65-.43-.67-1.15-1.45-.06-.08-.09-.12-.09-.18ZM83.25,115.65c.25,0,1.53,1.27,1.53,1.53,0,.07-.09.16-.39.38-.27.21-.41.28-.46.28q-.08,0-.38-.42c-.25-.34-.74-.85-1-1.08-.04-.04-.08-.07-.08-.12,0-.12.62-.57.78-.57Z"/>
        <path d="M91.08,126.97c0,.6.01.87.04,1.12h-1.33v-.63h-1v1.35h-1.44c.04-.45.08-.88.08-1.48v-2.97c0-.27.02-.72.04-1.1-.29.65-.42.85-.79,1.31-.13-.78-.27-1.21-.54-1.79,1.08-1.29,1.8-3.04,2.08-5.08h-.33c-.55,0-.81.01-1.24.07v-1.54c.42.04.82.08,1.41.08h1.68c.6,0,.96-.02,1.38-.08v1.53c-.35-.05-.51-.06-.86-.06h-.55c-.21,1.21-.41,1.93-.86,3.18h1.41c.36,0,.62-.02.87-.04-.03.29-.04.61-.04,1.06v.31c1.14-1.04,1.86-2.11,2.56-3.79h-.87v1.47h-1.41c.03-.3.04-.62.04-.93v-1.23c0-.25-.02-.4-.03-.72.34.04.41.04,1.05.04h1.68c.17-.6.23-.93.3-1.41l1.63.2c-.03.09-.17.49-.39,1.21h2.64c.52,0,.92-.02,1.27-.06-.04.24-.06.54-.06,1.05v.84c0,.4.01.66.06.94h-1.51v-1.41h-2.87c-.3.73-.54,1.21-.99,2.01h1.36c.24-.45.44-.96.58-1.56l1.42.3c-.22.6-.31.81-.54,1.26h1.03c.63,0,.84-.02,1.2-.06v1.4c-.39-.05-.73-.06-1.16-.06h-1.35v1.03h1.08c.64,0,.87-.01,1.2-.06v1.31c-.38-.04-.72-.06-1.19-.06h-1.09v1.05h1.08c.63,0,.85-.01,1.2-.06v1.31c-.36-.04-.69-.06-1.19-.06h-1.09v1.04h1.42c.66,0,1-.02,1.35-.06v1.46c-.5-.06-.86-.09-1.38-.09h-4.5v.65h-1.53c.08-.48.09-.85.09-1.6v-3.6c.02-.54.03-.89.03-1-.18.27-.38.51-.65.79-.15-.31-.27-.52-.52-.93v4.17ZM88.78,126.07h1v-3.81h-1v3.81ZM95.37,122.74v-1.03h-1.73v1.03h1.73ZM93.64,124.98h1.73v-1.05h-1.73v1.05ZM93.64,127.2h1.73v-1.04h-1.73v1.04Z"/>
        <path d="M100.95,118.24c.3.06.62.07,1.16.07h2.76c.6,0,.84-.02,1.15-.06v1.47c-.38-.04-.52-.04-1.09-.04h-2.82c-.5,0-.78.01-1.16.06v-1.5ZM101.43,116.23c.36.04.6.06,1.17.06h1.91c.57,0,.81-.02,1.17-.06v1.41c-.36-.03-.66-.04-1.17-.04h-1.91c-.52,0-.84.01-1.17.04v-1.41ZM105.61,127.78c0,.55.01.85.04,1.12h-1.37v-.51h-1.42v.71h-1.44c.04-.46.08-.96.08-1.4v-2.15c0-.45-.01-.67-.06-1.12.36.03.6.05,1.12.05h2.11c.51,0,.74-.02.96-.05-.01.23-.03.51-.03,1.05v1.78c.55-1.05.75-1.78.9-3.33l1.23.28c-.23,1.8-.39,2.5-.96,3.94l-1.17-.69v.3ZM101.47,120.4c.29.03.47.04.92.04h2.36c.48,0,.66-.01.88-.04v1.35c-.29-.03-.46-.04-.88-.04h-2.36c-.45,0-.67.01-.92.04v-1.35ZM101.47,122.41c.29.03.47.05.92.05h2.36c.46,0,.66-.02.88-.05v1.35c-.27-.03-.46-.04-.92-.04h-2.34c-.43,0-.57,0-.9.04v-1.35ZM102.84,127.14h1.46v-1.44h-1.46v1.44ZM106.87,118.36c.81.27,1.09.38,1.65.6.14-.45.17-.66.23-1.17h-.95c-.75,0-1.11.02-1.54.08v-1.53c.41.06.99.09,1.58.09h4.57c.58,0,1.04-.02,1.37-.06-.04.24-.04.28-.09,1.24-.08,1.41-.24,2.93-.39,3.6-.27,1.14-.66,1.44-1.88,1.44-.35,0-.75-.02-1.11-.04-.09-.62-.15-.89-.36-1.44h.07c-.38-.23-.46-.29-.79-.48-.67,1.08-1.39,1.77-2.65,2.52-.33-.5-.54-.75-1-1.14,1.18-.57,1.86-1.12,2.43-2-.6-.27-.88-.38-1.71-.66l.58-1.05ZM109.39,127.12c0,.35.08.39.62.39.83,0,1-.04,1.11-.25.09-.2.15-.79.17-1.58.48.23.82.35,1.33.44-.08,1.08-.18,1.67-.36,2.05-.27.56-.72.71-2.16.71-1.74,0-2.1-.18-2.1-1.08v-2.95c0-.38-.02-.69-.08-1.06h1.53c-.04.28-.06.48-.06.92v2.43ZM109.51,122.01c1.33,1.04,1.38,1.08,2.24,2.01l-1.08.93c-.65-.89-1.23-1.46-2.17-2.13l1.02-.81ZM110.19,117.79c-.1.79-.18,1.12-.4,1.74.48.24.63.33,1.21.65l-.65,1.06c.25.05.56.06.81.06.43,0,.57-.12.71-.61.15-.54.24-1.41.28-2.9h-1.96ZM113.01,123.82c.67,1.09,1.06,1.94,1.59,3.36l-1.23.73c-.45-1.59-.73-2.22-1.51-3.46l1.16-.63Z"/>
        <path d="M120.36,116.5c.37.1.48.18.48.35,0,.1-.01.15-.09.36-.17.44-.29,1.2-.34,2.25-.12,2.42-.18,4.29-.18,5.77,0,.48.04.84.12,1.08.17.5.69.75,1.53.75,1.35,0,2.62-.55,3.79-1.65.54-.51.87-.92,1.42-1.74.09.48.21.79.54,1.47.04.12.08.21.08.35,0,.27-.29.63-1.04,1.3-1.49,1.33-3.13,2.02-4.86,2.02-1.14,0-1.98-.28-2.52-.82-.57-.6-.79-1.38-.79-2.86,0-1.17.01-2.07.13-5.56.02-.52.03-.84.03-.98,0-1.27-.01-1.65-.11-2.29.77.03,1.35.09,1.8.21Z"/>
        <path d="M130.99,120.66h-.09c-.08.02-.14.02-.17.02-.13,0-.21-.06-.25-.25-.09-.38-.15-.84-.18-1.41.21.02.38.02.48.02.81,0,1.75-.06,2.55-.17.15-.99.22-1.75.22-2.37v-.35c1.74.23,2.07.33,2.06.6,0,.07-.03.12-.09.25-.18.34-.19.39-.43,1.57.58-.1,1.33-.3,1.63-.4.06-.03.08-.03.12-.03.13,0,.17.06.29.58.06.3.12.72.12.84,0,.1-.04.17-.18.19q-.27.09-2.32.45c-.69,3.04-1.41,5.29-2.57,7.99-.08.19-.15.27-.24.27-.2,0-.72-.21-1.23-.5-.25-.13-.33-.21-.33-.29,0-.06.04-.16.12-.31,1.14-2.16,1.96-4.45,2.54-6.93-.66.09-1.12.14-2.04.21ZM137.4,126.36c.44.29,1.07.42,1.95.42.97,0,1.82-.09,2.29-.24.12-.03.15-.04.21-.04.13,0,.2.04.24.18.1.31.18.93.18,1.39,0,.2-.06.27-.25.32-.5.1-1.33.16-2.22.16-1.88,0-2.92-.3-3.62-1.02-.25-.27-.46-.62-.58-.99-.09-.21-.15-.46-.15-.56,0-.25.45-.52,1.23-.78.17.63.34.9.72,1.15ZM141.61,121.99c-.3-.04-.93-.07-1.46-.07-1.11,0-1.57.04-2.89.27-.03.01-.08.01-.1.01-.09,0-.14-.03-.17-.12-.04-.1-.11-.84-.11-1.16,0-.19.03-.28.15-.33.06-.03.15-.04.46-.1,1.02-.18,1.88-.25,2.92-.25.87,0,1.32.03,1.42.1.08.06.09.18.09.68,0,.43-.03.82-.06.91-.02.05-.08.08-.15.08-.03,0-.08,0-.12-.02Z"/>
        <path d="M148.95,121.47q.07-.12.73-1.23c.09.25.18.42.36.66.1.17.15.25.15.34s-.03.17-.39.75c-.25.45-.69,1.38-.87,1.83-.15.42-.21.45-.71.45s-.88-.06-.94-.15c-.09-.12-.15-.93-.15-2.04,0-1.47.11-2.5.5-5.11.04-.3.06-.45.06-.78,1.17.21,1.94.56,1.94.84,0,.08-.02.12-.12.26-.2.28-.32.67-.46,1.47-.18,1-.32,2.32-.32,3.12q.13-.24.23-.41ZM154.39,117.09v.25c.01.06.01.18.03.35q.01.24.04.61,0,.17.03.72c.04.72.07,1.44.07,1.8,0,2.82-.73,5.01-2.29,6.85-.6.71-1.12,1.11-1.42,1.11-.18,0-.19,0-.51-.24-.29-.22-.67-.42-1.06-.52,1.05-.75,1.62-1.27,2.17-2.07.93-1.33,1.38-2.92,1.38-4.86,0-2.05-.14-3.31-.48-4.23.63-.08,1.09-.11,1.53-.11s.51.03.51.29v.04Z"/>
        <path d="M159.16,125.28c.27-.24.34-.3.45-.3.19,0,1.09.66,1.75,1.29.75.69,1.59,1.69,1.59,1.9,0,.14-.03.17-.46.56-.57.52-.69.62-.79.62-.09,0-.18-.06-.25-.21-.53-.93-1.73-2.16-2.79-2.85-.12-.09-.18-.15-.18-.24,0-.1.03-.15.69-.76Z"/>
        <path d="M173.14,128.01c.86-.93,1.22-1.5,1.59-2.54l1.4.58c-.46,1.17-.83,1.8-1.67,2.86l-1.32-.91ZM178.93,116.58c0-.31-.01-.58-.08-.92h1.77c-.04.3-.08.57-.08.92v.13h3.39c.71,0,1.08-.01,1.53-.09v1.4c-.44-.04-.78-.06-1.53-.06h-.81c-.13.31-.25.52-.42.85h1.95c.86,0,1.25-.02,1.67-.08v1.4c-.42-.06-.84-.07-1.68-.07h-9.6c-.81,0-1.23.01-1.65.07v-1.4c.4.06.85.08,1.71.08h1.79c-.12-.33-.18-.48-.38-.85h-.79c-.72,0-1.08.02-1.47.06v-1.4c.39.06.83.09,1.53.09h3.15v-.13ZM176.32,125.19c-.62,0-.96.02-1.4.03.03-.29.04-.52.04-1.06v-2.28c0-.58-.01-.92-.06-1.29.38.03.76.04,1.56.04h6.69c.87,0,1.2-.02,1.58-.04-.04.33-.06.67-.06,1.29v2.16c0,.46.01.75.06,1.19-.19,0-.22,0-.48-.02h-.39c-.18-.02-.31-.02-.39-.02h-3.29c.44.29.65.45,1.42,1.12l-1.18.95c-.66-.75-.72-.79-1.63-1.53l.72-.54h-3.19ZM176.47,122.38h6.71v-.6h-6.71v.6ZM176.47,124.03h6.71v-.58h-6.71v.58ZM182.1,126.37v-.15c.51.23.79.3,1.47.39-.04,1.08-.15,1.53-.42,1.83-.39.44-1,.53-3.48.53s-2.99-.17-2.99-1.02v-1.26c0-.48-.01-.78-.08-1.06h1.65c-.04.36-.06.56-.06,1.06v.63c0,.17.04.23.22.27.17.05.76.09,1.29.09,1.29,0,1.84-.04,2.08-.15.13-.06.19-.17.24-.39.03-.15.06-.46.06-.62v-.15ZM181.09,118.81c.18-.35.25-.51.41-.85h-3.39c.15.31.2.42.38.85h2.61ZM185.2,128.74c-.71-1.17-1.14-1.77-1.96-2.7l1.26-.72c.9.96,1.4,1.57,2.01,2.52l-1.31.9Z"/>
        <path d="M191.04,124.86c-.67,0-1.2.01-1.56.04.04-.42.08-.89.08-1.53v-5.25c0-.78-.03-1.42-.08-1.79.42.04.87.06,1.52.06h6.64c.63,0,1.09-.02,1.51-.06-.04.31-.08.98-.08,1.79v5.25c0,.72.02,1.11.08,1.53-.38-.03-.96-.04-1.53-.04h-1.24v2.22c0,.4.12.45,1.29.45,1.08,0,1.36-.06,1.53-.3.15-.21.23-.78.25-1.84.6.31.96.46,1.5.6-.15,1.6-.29,2.15-.66,2.49-.4.36-1.02.48-2.62.48-2.42,0-2.85-.2-2.85-1.27v-2.82h-1.29c-.17,1.09-.63,1.99-1.36,2.67-.92.84-2,1.36-3.65,1.74-.24-.6-.42-.9-.84-1.42,1.37-.24,2.12-.5,2.82-.96.76-.5,1.18-1.12,1.36-2.02h-.82ZM191.07,118.78h6.5v-.95h-6.5v.95ZM191.07,121.08h6.5v-.94h-6.5v.94ZM191.07,123.46h6.5v-1.04h-6.5v1.04Z"/>
        <path d="M208.6,124.45c-1.48.87-1.91,1.31-1.91,1.96,0,.27.11.45.33.58.33.2,1.07.3,2.01.3.81,0,1.93-.08,2.7-.18.32-.04.5-.09,1.09-.24h.08c.11,0,.18.07.23.18.09.31.15.77.15,1.31,0,.23-.08.31-.27.36-.36.08-2.03.17-3.12.17-1.83,0-2.8-.12-3.52-.42-.87-.36-1.31-1.04-1.31-1.98,0-.87.41-1.63,1.21-2.28.65-.51.79-.62,2.17-1.4-.12-.5-.34-.71-.81-.71-.62,0-1.26.24-1.96.71-.43.3-.95.72-1.26,1.03-.45.47-.5.5-.62.5-.15,0-.46-.34-.78-.87-.15-.25-.24-.45-.24-.55,0-.14.03-.17.39-.39,1.23-.82,2.25-1.88,2.87-2.95-1.07.07-1.62.09-2.21.09-.23,0-.27-.04-.34-.3-.05-.2-.12-.99-.14-1.4.51.07.81.09,1.53.09.58,0,1.23-.02,1.91-.04.31-.85.42-1.4.43-2.1,1.33.23,1.95.45,1.95.71,0,.06-.02.09-.06.18-.1.19-.22.43-.42.9q-.03.06-.04.1c.86-.12,1.61-.27,2.13-.39.33-.09.41-.1.48-.1.12,0,.18.04.21.14.06.27.15.96.15,1.17,0,.17-.06.24-.25.28-.48.14-2.13.39-3.51.52-.45.83-.76,1.31-1.23,1.81.67-.31,1.18-.43,1.78-.43.68,0,1.12.39,1.43,1.23,1.48-.81,2.28-1.24,2.37-1.3.69-.4.98-.63,1.31-1,.61.63,1.27,1.57,1.27,1.83,0,.09-.06.15-.25.2-.74.19-2.1.78-4.38,1.89.01.27.04.96.04,1.44v.72c0,.18-.03.27-.1.31-.08.08-.48.12-.93.12-.51,0-.6-.04-.6-.29v-.06c.03-.44.04-1,.04-1.36v-.08Z"/>
        <path d="M229.68,119.73c-.48-.04-.98-.08-1.59-.08h-9.79c-.67,0-1.11.02-1.59.08v-1.53c.43.06.88.09,1.57.09h9.83c.71,0,1.14-.03,1.58-.09v1.53ZM219.87,129.09h-1.62c.04-.45.08-.93.08-1.33v-2.04c0-.54-.02-.84-.06-1.23.34.03.6.04,1.12.04h7.58c.58,0,.82-.02,1.14-.06-.04.34-.06.65-.06,1.26v2.04c0,.58.02.92.08,1.32h-1.63v-.6h-6.61v.6ZM228.04,117.63c-.48-.06-.93-.07-1.59-.07h-6.51c-.64,0-1.09.01-1.57.07v-1.46c.46.06.94.09,1.57.09h6.51c.66,0,1.14-.03,1.59-.09v1.46ZM227.92,121.74c-.41-.04-.8-.06-1.46-.06h-6.51c-.67,0-1.07.02-1.47.06v-1.4c.38.04.78.06,1.47.06h6.51c.69,0,1.08-.02,1.46-.06v1.4ZM227.92,123.76c-.38-.04-.8-.06-1.46-.06h-6.51c-.67,0-1.1.02-1.47.06v-1.4c.42.04.75.06,1.47.06h6.51c.72,0,1.05-.02,1.46-.06v1.4ZM219.87,127.11h6.63v-1.24h-6.63v1.24Z"/>
        <path d="M234.7,121.38c1.89-.52,3.25-.77,4.27-.77,2.12,0,3.42,1.16,3.42,3.03,0,1.12-.46,2.12-1.35,2.87-.58.49-1.46.92-2.61,1.26-.64.18-1.33.31-1.63.31-.18,0-.27-.04-.33-.19-.21-.52-.45-.9-.76-1.21,3.3-.35,4.98-1.4,4.98-3.1,0-.87-.72-1.54-1.65-1.54-1.62,0-3.39.54-5.25,1.57-.15.08-.24.12-.3.12-.25,0-.67-.75-1.02-1.83.74-.1.99-.17,2.24-.51Z"/>
        <path d="M15.31,146.17h-.09c-.08.02-.14.02-.17.02-.13,0-.21-.06-.25-.25-.09-.38-.15-.84-.18-1.41.21.01.38.01.48.01.81,0,1.75-.06,2.55-.17.15-.99.22-1.75.22-2.37v-.35c1.74.23,2.07.33,2.06.6,0,.07-.03.12-.09.25-.18.34-.19.39-.43,1.57.58-.1,1.33-.3,1.63-.4.06-.03.08-.03.12-.03.13,0,.17.06.29.58.06.3.12.72.12.84,0,.11-.04.17-.18.2q-.27.09-2.32.45c-.69,3.04-1.41,5.29-2.57,7.99-.08.2-.15.27-.24.27-.2,0-.72-.21-1.23-.5-.25-.13-.33-.21-.33-.29,0-.06.04-.17.12-.32,1.14-2.16,1.96-4.45,2.54-6.93-.66.09-1.12.14-2.04.21ZM21.72,151.87c.44.29,1.07.42,1.95.42.97,0,1.82-.09,2.29-.24.12-.03.15-.04.21-.04.13,0,.2.04.24.18.1.31.18.93.18,1.39,0,.2-.06.27-.25.32-.5.1-1.33.16-2.22.16-1.88,0-2.92-.3-3.62-1.02-.25-.27-.46-.62-.58-.99-.09-.21-.15-.46-.15-.55,0-.25.45-.53,1.23-.78.17.63.34.9.72,1.16ZM25.93,147.51c-.3-.04-.93-.07-1.46-.07-1.11,0-1.57.04-2.89.27-.03.01-.08.01-.1.01-.09,0-.14-.03-.17-.12-.04-.11-.11-.84-.11-1.16,0-.2.03-.29.15-.33.06-.03.15-.04.46-.11,1.02-.18,1.88-.25,2.92-.25.87,0,1.32.03,1.42.11.08.06.09.18.09.67,0,.43-.03.83-.06.92-.02.04-.08.08-.15.08-.03,0-.08,0-.12-.02Z"/>
        <path d="M33.27,146.98q.07-.12.73-1.23c.09.25.18.42.36.66.1.17.15.25.15.34s-.03.17-.39.75c-.25.45-.69,1.38-.87,1.83-.15.42-.21.45-.71.45s-.88-.06-.94-.15c-.09-.12-.15-.93-.15-2.04,0-1.47.11-2.5.5-5.12.04-.3.06-.45.06-.78,1.17.21,1.94.56,1.94.84,0,.08-.02.12-.12.26-.2.28-.32.67-.46,1.47-.18,1-.32,2.32-.32,3.12q.13-.24.23-.41ZM38.71,142.6v.25c.01.06.01.18.03.34q.01.24.04.62,0,.17.03.72c.04.72.07,1.44.07,1.8,0,2.82-.73,5.01-2.29,6.86-.6.71-1.12,1.11-1.42,1.11-.18,0-.19,0-.51-.24-.29-.22-.67-.42-1.06-.52,1.05-.75,1.62-1.28,2.17-2.07.93-1.33,1.38-2.92,1.38-4.86,0-2.05-.14-3.32-.48-4.23.63-.08,1.09-.11,1.53-.11s.51.03.51.29v.04Z"/>
        <path d="M45.73,145.47c-.39.09-.53.13-1.07.33-.19.08-.3.11-.39.11-.33,0-.63-.62-.9-1.91.96-.04,1.31-.09,2.97-.34,1.8-.27,4.08-.62,5.28-.76,1.35-.18,2.43-.36,3-.48.1-.03.15-.03.22-.03.2,0,.27.09.41.46.12.31.21.76.21.97,0,.18-.06.24-.27.24-.32,0-.6.03-.89.08-2.53.42-4.56,2.64-4.56,4.98,0,1.75,1.38,2.91,3.72,3.12.21.01.29.09.29.27,0,.38-.15,1.09-.29,1.42-.08.17-.19.24-.39.24s-.65-.09-1.11-.22c-2.55-.75-3.88-2.37-3.88-4.67,0-1.25.41-2.4,1.19-3.39.42-.54.78-.84,1.63-1.43-1.96.33-4.04.72-5.17,1.01ZM53.41,145.86c.21,0,1.48,1.42,1.48,1.65,0,.08-.09.17-.36.41-.29.24-.3.24-.42.29q-.08.03-.11.03c-.06,0-.08-.02-.34-.44-.24-.38-.5-.71-.97-1.2-.03-.03-.08-.1-.08-.12.03-.08.04-.12.06-.12.04-.06.3-.27.36-.32.15-.08.24-.13.25-.15.01-.03.04-.03.04-.03h.08ZM55.98,146.89c-.22.17-.36.25-.43.25-.06,0-.09-.03-.17-.15-.45-.67-.67-.96-1.16-1.42-.03-.04-.06-.09-.06-.12,0-.08.09-.17.3-.31.21-.15.39-.24.46-.24.11,0,.29.13.6.45.44.45.84,1,.84,1.14,0,.09-.11.2-.39.41Z"/>
        <path d="M63.34,144.88c-1.29.22-2.62.38-3.43.38-.24,0-.34-.05-.38-.18-.06-.22-.12-.67-.15-1.23,1.22,0,2.15-.08,3.48-.29q-.08-.22-.27-.78c-.13-.36-.25-.66-.42-.97.65-.13,1.23-.21,1.77-.21.13,0,.21.09.21.24v.21c0,.27.06.63.21,1.21,1.12-.25,2.08-.57,2.85-.9.12-.04.15-.06.2-.06.07,0,.12.08.25.39.13.34.27.74.27.81s-.03.11-.12.15c-.88.38-1.29.51-3.03.95.21.52.27.66.52,1.2.83-.22,1.23-.36,1.53-.51l1.41-.71s.04-.03.04-.03c.01,0,.04.01.06.01.06,0,.12.09.25.38.18.36.33.76.33.85q0,.11-.31.27c-.83.45-1.47.71-2.55,1,.6.88,1.46,1.84,1.96,2.21.51.36.52.39.52.54,0,.13-.15.45-.43.94-.25.44-.38.56-.54.56-.09,0-.11,0-.33-.17-.76-.58-2.31-.99-3.79-.99-1.29,0-2.1.45-2.1,1.2,0,.46.36.84,1,1.08.58.21,1.88.34,3.27.34.33,0,.62-.01,1.2-.04-.27.39-.41.66-.58,1.29-.09.31-.2.38-.66.38-1.6,0-3.03-.18-3.99-.53-1.28-.45-1.95-1.29-1.95-2.42,0-1.6,1.32-2.58,3.51-2.58,1.35,0,2.21.15,3.15.57-.84-.79-1.29-1.33-1.72-2.04-.72.15-1.08.21-1.56.29-.86.12-2.42.24-3.04.24-.48,0-.5-.02-.63-1.42.33.01.58.01.73.01.96,0,2.79-.2,3.79-.41-.18-.38-.38-.81-.54-1.24Z"/>
        <path d="M80.17,146.62c2.12,0,3.62,1.44,3.62,3.48,0,1.39-.74,2.65-1.96,3.39-.86.51-1.91.76-3.09.76-1.91,0-3.02-.76-3.02-2.07,0-1.19.99-2.03,2.4-2.03,1.27,0,2.19.64,2.8,1.96.76-.55,1.08-1.14,1.08-1.95,0-1.29-.92-2.13-2.36-2.13s-3.04.74-4.35,2.04c-.24.24-.46.5-.73.84-.11.15-.18.21-.27.21-.27,0-1.33-1.05-1.33-1.32,0-.13.06-.21.39-.45.34-.27.84-.71,1.47-1.3,1.46-1.38,2.52-2.54,4.09-4.46-1.88.24-3.13.45-3.6.62-.08.01-.12.03-.17.03-.12,0-.2-.07-.29-.3-.18-.45-.27-.94-.32-1.6.41.06.69.08,1.02.08.72,0,1.93-.11,3.51-.29.55-.06.73-.11,1.15-.27.14-.06.21-.08.3-.08.21,0,.42.18.81.78.29.39.38.58.38.71,0,.2-.04.25-.38.46-.27.17-.43.3-.78.63-.75.72-.76.72-1.69,1.67-.66.67-.74.75-1.33,1.35.97-.54,1.74-.77,2.64-.77ZM78.73,151.81c-.23-.15-.48-.23-.77-.23-.46,0-.76.23-.76.58,0,.44.46.71,1.18.71.33,0,.62-.03.99-.13-.18-.5-.33-.72-.64-.93Z"/>
        <path d="M93.88,146.34c.34,1.29,1.11,2.69,2.07,3.77,1.06,1.23,2.26,2.04,3.97,2.74-.5.57-.69.89-1.05,1.65-2.85-1.46-4.65-3.38-5.73-6.12-.43,1.47-1.2,2.73-2.35,3.86-.97.97-2.01,1.65-3.43,2.28-.24-.55-.54-1-1-1.51,1.75-.71,3-1.56,3.93-2.68.9-1.1,1.38-2.25,1.63-3.98h-3.39c-.92,0-1.33.02-1.82.09v-1.8c.45.06.98.09,1.82.09h3.54c.03-.66.04-1.01.04-1.58,0-.72-.03-1.16-.11-1.58h1.91c-.08.51-.09.71-.11,1.7,0,.61-.01.94-.03,1.46h3.81c.81,0,1.33-.03,1.81-.09v1.8c-.55-.06-1-.09-1.8-.09h-3.72Z"/>
        <path d="M106.63,148.57h-3.4c-.53,0-.93.01-1.32.06v-1.26c.33.04.72.06,1.35.06h3.38v-.56h-3.04c-.51,0-.87.02-1.21.04.03-.31.04-.6.04-.97v-.95c0-.4-.01-.63-.04-1,.41.03.69.04,1.23.04h3.03v-.54h-3.94c-.72,0-1.17.02-1.68.08v-1.42c.45.06.93.09,1.77.09h3.85c-.01-.51-.03-.66-.09-.99h1.72c-.06.31-.07.45-.09.99h4.05c.84,0,1.3-.03,1.77-.09v1.42c-.48-.04-.99-.08-1.68-.08h-4.14v.54h3.27c.56,0,.84-.01,1.2-.04-.03.33-.04.56-.04,1v.95c0,.45.02.66.04.97-.33-.03-.67-.04-1.14-.04h-3.33v.56h3.25c.84,0,1.08-.02,1.53-.04-.04.38-.04.55-.04,1.3v.51c.63,0,.94-.03,1.25-.08v1.37c-.35-.04-.62-.08-1.25-.08v.84c0,.77.01,1.11.07,1.54h-1.6v-.55h-3.21v.81c0,1.29-.36,1.56-2.1,1.56-.36,0-.88-.02-1.4-.04-.07-.58-.17-.87-.43-1.44.76.09,1.3.13,1.8.13s.58-.06.58-.34v-.67h-3.39c-.63,0-1,.01-1.42.06v-1.32c.39.04.63.06,1.38.06h3.43v-.63h-4.12c-.81,0-1.21.01-1.59.08v-1.37c.39.06.72.08,1.56.08h4.15v-.63ZM103.95,145.17v.58h2.68v-.58h-2.68ZM108.18,145.75h2.89v-.58h-2.89v.58ZM111.39,149.2v-.63h-3.21v.63h3.21ZM108.18,151.05h3.21v-.63h-3.21v.63Z"/>
        <path d="M117.18,145.8c-.27.02-.43.03-.61.05-.14.01-.15.01-.17.01-.12,0-.18-.04-.23-.2-.08-.24-.18-1.04-.19-1.48.17.01.6.03,1.14.03.17,0,1.35-.07,1.88-.12.25-1.21.34-1.84.34-2.65,1.54.21,2.1.39,2.1.67,0,.11-.01.13-.24.48-.12.18-.17.34-.42,1.27.7-.12,1.12-.22,1.68-.41.1-.03.15-.04.22-.04.11,0,.13.08.23.51.07.38.12.69.12.85,0,.18-.04.21-.43.3-.51.12-1.38.27-2.31.39-.56,1.68-.93,2.58-1.62,3.99-.53,1.05-.83,1.61-1.23,2.24-.12.18-.19.24-.3.24-.15,0-.57-.22-1.09-.61-.24-.17-.3-.24-.3-.35s.06-.19.25-.46c.43-.54,1-1.47,1.5-2.46.42-.82.57-1.17,1-2.35-.58.04-.63.06-1.32.1ZM122.11,154.43c-1.64,0-2.75-.9-2.75-2.23s1.15-2.42,2.7-2.42c.36,0,.53.01,1.14.11-.06-.72-.06-1.01-.12-2.4,0-.29-.03-.67-.06-1.16.77.08,1.35.17,1.64.29.12.04.18.12.18.24,0,.08-.01.13-.03.24-.08.31-.09.54-.09.94,0,.56.04,1.5.09,2.24,1.07.48,1.5.72,2.25,1.3.33.25.45.39.45.51,0,.15-.08.29-.5.96-.18.3-.31.44-.42.44q-.09,0-.51-.39c-.33-.33-.71-.58-1.23-.9,0,1.39-1.02,2.23-2.74,2.23ZM122.08,151.23c-.72,0-1.21.34-1.21.87,0,.5.45.81,1.12.81.79,0,1.21-.41,1.21-1.2,0-.12,0-.24-.02-.24-.3-.15-.7-.24-1.11-.24ZM127.69,146.96c-.18.26-.27.33-.38.33-.08,0-.13-.03-.24-.13-.38-.36-.9-.75-1.46-1.09q-.36-.22-1.02-.53c-.21-.09-.29-.15-.29-.27,0-.11.08-.24.3-.58.36-.53.45-.62.58-.62.28,0,1.39.57,2.19,1.11.65.43.84.61.84.78,0,.12-.24.57-.54,1Z"/>
        <path d="M135.66,150.16c-.57.51-.92.75-1.75,1.23-.18-.31-.24-.42-.56-.76-.9.54-1.47.84-2.86,1.51-.02.02-.09.05-.2.11l-.13.08-.36-1.68c.38-.09.88-.27,1.62-.58v-3.79h-.42c-.42,0-.74.01-1.11.07v-1.53c.33.04.66.06,1.12.06h.41v-1.79c0-.75-.03-1.18-.09-1.6h1.68c-.08.46-.09.85-.09,1.6v1.79h.27c.46,0,.74-.01,1-.04v1.49c-.31-.03-.6-.04-1-.04h-.27v3.09c.33-.18.5-.27.97-.54v1c.78-.48,1.28-.92,1.71-1.47h-.33c-.6,0-1,.03-1.32.07v-1.44c.31.06.67.08,1.33.08h6.3c.69,0,1.14-.03,1.5-.08v1.42c-.44-.04-.84-.06-1.49-.06h-4.41c-.12.21-.19.33-.39.6h4.58c.7,0,.96-.01,1.41-.04-.03.24-.04.45-.06.85-.08,1.77-.29,3.25-.58,3.9-.3.66-.76.85-2.03.85-.36,0-.63-.01-1.21-.04-.06-.52-.17-.92-.39-1.32-.76.67-1.38,1.08-2.37,1.57-.33-.46-.55-.72-1.04-1.09,1.25-.54,1.86-.9,2.62-1.54.58-.51,1.05-1.11,1.49-1.92h-.86c-.9,1.35-2.13,2.31-4,3.15-.24-.45-.45-.69-.9-1.08,1.63-.63,2.58-1.2,3.33-2.07h-1.12ZM136.09,146.44c-.58,0-1.02.01-1.32.04.05-.41.06-.79.06-1.38v-2.1c0-.6-.01-.87-.06-1.31.45.06.77.08,1.46.08h4.2c.75,0,1.09-.01,1.54-.08-.04.38-.06.69-.06,1.42v2c0,.62.02,1.07.06,1.35-.34-.02-.71-.03-1.3-.03h-4.58ZM136.32,143.65h4.08v-.62h-4.08v.62ZM136.32,145.29h4.08v-.58h-4.08v.58ZM140.7,150.16c-.55,1.2-1.12,2.01-2.01,2.82.62.09,1.07.12,1.49.12.52,0,.67-.15.81-.76.11-.51.18-1.14.25-2.17h-.54Z"/>
        <path d="M146.1,145.8c-.27.02-.43.03-.61.05-.14.01-.15.01-.17.01-.12,0-.18-.04-.23-.2-.08-.24-.18-1.04-.19-1.48.17.01.6.03,1.14.03.17,0,1.35-.07,1.88-.12.25-1.21.34-1.84.34-2.65,1.54.21,2.1.39,2.1.67,0,.11-.01.13-.24.48-.12.18-.17.34-.42,1.27.7-.12,1.12-.22,1.68-.41.1-.03.15-.04.22-.04.11,0,.13.08.23.51.07.38.12.69.12.85,0,.18-.04.21-.43.3-.51.12-1.38.27-2.31.39-.56,1.68-.93,2.58-1.62,3.99-.53,1.05-.83,1.61-1.23,2.24-.12.18-.19.24-.3.24-.15,0-.57-.22-1.09-.61-.24-.17-.3-.24-.3-.35s.06-.19.25-.46c.43-.54,1-1.47,1.5-2.46.42-.82.57-1.17,1-2.35-.58.04-.63.06-1.32.1ZM151.03,154.43c-1.64,0-2.75-.9-2.75-2.23s1.15-2.42,2.7-2.42c.36,0,.53.01,1.14.11-.06-.72-.06-1.01-.12-2.4,0-.29-.03-.67-.06-1.16.77.08,1.35.17,1.64.29.12.04.18.12.18.24,0,.08-.01.13-.03.24-.08.31-.09.54-.09.94,0,.56.04,1.5.09,2.24,1.07.48,1.5.72,2.25,1.3.33.25.45.39.45.51,0,.15-.08.29-.5.96-.18.3-.31.44-.42.44q-.09,0-.51-.39c-.33-.33-.71-.58-1.23-.9,0,1.39-1.02,2.23-2.74,2.23ZM151,151.23c-.72,0-1.21.34-1.21.87,0,.5.45.81,1.12.81.79,0,1.21-.41,1.21-1.2,0-.12,0-.24-.02-.24-.3-.15-.7-.24-1.11-.24ZM156.61,146.96c-.18.26-.27.33-.38.33-.08,0-.13-.03-.24-.13-.38-.36-.9-.75-1.46-1.09q-.36-.22-1.02-.53c-.21-.09-.29-.15-.29-.27,0-.11.08-.24.3-.58.36-.53.45-.62.58-.62.28,0,1.39.57,2.19,1.11.65.43.84.61.84.78,0,.12-.24.57-.54,1Z"/>
        <path d="M164.62,150.97c-.72,1.25-1.71,1.94-2.73,1.94-1.56,0-2.67-1.53-2.67-3.66,0-2.37,1.2-4.41,3.25-5.49,1-.54,2.08-.78,3.51-.78,3.14,0,5.46,2.22,5.46,5.19,0,2.62-1.29,4.51-3.78,5.58-.5.21-.89.33-1.08.33-.18,0-.25-.06-.45-.34-.25-.39-.54-.68-.95-.95,3.09-.79,4.49-2.25,4.49-4.68,0-1.25-.53-2.29-1.46-2.96-.53-.36-.95-.51-1.77-.64-.42,3.16-.92,4.89-1.83,6.46ZM162.46,145.66c-1,.88-1.58,2.15-1.58,3.55,0,1.16.38,1.83,1,1.83.75,0,1.52-1.04,2.08-2.82.36-1.12.54-1.98.77-3.65-1.07.23-1.59.48-2.28,1.08Z"/>
        <path d="M180.36,146.64c.03,1.12.06,1.71.21,3.21,1.26.41,1.86.66,2.75,1.14,1.18.67,1.79,1.12,1.79,1.33,0,.18-.2.52-.54,1.02-.23.33-.39.48-.51.48-.08,0-.14-.03-.24-.14-1.07-1.02-1.92-1.57-3.18-2.08-.03.91-.2,1.39-.63,1.84-.53.52-1.44.81-2.62.81-1.96,0-3.17-.87-3.17-2.29,0-1.51,1.32-2.47,3.38-2.47.5,0,.93.03,1.3.08-.15-2.46-.2-3.65-.21-5.85-.01-.87-.04-1.39-.13-2.1.69.02,1.38.09,1.79.2.24.08.33.15.33.31,0,.08-.01.12-.06.24-.17.39-.22.96-.25,2.62q.12,0,.58-.03c.72-.04,1.74-.22,2.88-.54.04-.01.08-.01.12-.01.09,0,.12.03.18.18.15.36.32,1.1.32,1.35,0,.12-.06.17-.2.21-1.16.27-2.77.5-3.66.5h-.21ZM177.42,150.96c-1.02,0-1.63.34-1.63.92,0,.53.51.79,1.46.79,1.15,0,1.66-.41,1.66-1.35v-.12c-.49-.18-.92-.24-1.48-.24Z"/>
        <path d="M195.48,153.09c0,.66-.52,1.18-1.18,1.18s-1.19-.52-1.19-1.18.53-1.18,1.19-1.18,1.18.52,1.18,1.18ZM194.95,150.87h-1.33l-.41-8.98h2.16l-.42,8.98Z"/>
      </g>
      <circle class="cls-10" cx="308.24" cy="154.19" r="30"/>
      <circle class="cls-12" cx="31.42" cy="30" r="30"/>
      <path class="cls-9" d="M329.77,7.64H90.4c-4.68,0-8.47,3.79-8.47,8.47v12.66s-9.69,9.69-9.69,9.69h9.69v.5c0,4.68,3.79,8.47,8.47,8.47h239.38c4.68,0,8.47-3.79,8.47-8.47v-22.85c0-4.68-3.79-8.47-8.47-8.47Z"/>
      <g>
        <path d="M97.03,26.97c-.45,1.48-.94,2.62-1.6,3.75l-.69-1.6c.93-1.2,1.67-2.8,2.13-4.63h-1.8v-1.3h1.96v-2.96h1.35v2.96h1.65v1.3h-1.65v1.42c.75.66,1.36,1.31,1.93,2.02l-.78,1.35c-.42-.75-.64-1.12-1.15-1.84v6.01h-1.35v-6.48ZM103.3,28.78c-.68,1.43-1.62,2.7-2.82,3.77l-.96-1.2c1.51-1.05,2.62-2.35,3.51-4.14h-3.12v-1.27h3.39v-1.91h-1.59c-.25.71-.43,1.14-.76,1.73l-1.08-.81c.54-.92.92-2.22,1.16-3.85l1.27.21c-.06.46-.15.96-.27,1.44h1.28v-2.52h1.38v2.52h2.88v1.29h-2.88v1.91h3.54v1.27h-3.27c.86,1.5,2.16,2.79,3.62,3.67l-.87,1.35c-1.25-1.04-2.25-2.19-3.01-3.54v4.75h-1.38v-4.67Z"/>
        <path d="M109.87,31.44h5.4v-3.06h-4.2v-1.32h4.2v-2.6h-4.91v-1.32h5.94c-.86-.66-2.08-1.4-3.24-1.94l1.2-1c1.17.52,2.26,1.17,3.36,1.96l-1.11.98h5.31v1.32h-5v2.6h4.29v1.32h-4.29v3.06h5.49v1.36h-12.45v-1.36Z"/>
        <path d="M126.19,27.54c-.38.04-1.25.12-2.01.17l-.36-1.32,1.17-.04c.33-.4.6-.73.83-1.08-.71-.97-1.27-1.66-1.86-2.25l.81-.99.5.6c.52-.75,1-1.62,1.33-2.48l1.26.65c-.62,1.05-1.23,1.9-1.88,2.65l.57.81c.52-.67,1-1.42,1.54-2.37l1.12.7c-.84,1.31-1.86,2.61-2.87,3.73.62-.03,1.18-.06,1.8-.1-.24-.6-.3-.75-.48-1.09l.97-.36c.45.87.86,1.83,1.14,2.83l-1.08.43c-.04-.17-.1-.43-.21-.79-.25.06-.6.12-1.03.17v6.04h-1.28v-5.91ZM123.9,31.89c.32-.98.5-2.08.58-3.49l1.2.17c-.08,1.57-.27,2.86-.6,3.94l-1.19-.62ZM127.72,28.47l1.06-.34c.33.75.6,1.66.79,2.76l-1.2.52c-.15-1.12-.38-2.16-.66-2.94ZM129.22,24.22c.88-.93,1.59-2.17,2.07-3.63l1.21.45c-.54,1.6-1.38,3.1-2.29,4.11l-.99-.93ZM129.33,32.14c.36-.94.6-1.98.72-3.27l1.19.3c-.17,1.65-.38,2.73-.75,3.66l-1.16-.69ZM131.59,32.29v-3.63h1.19c-.29-.27-.42-.41-.86-.75l.84-.66c-.86.1-1.55.17-2.66.24l-.39-1.35,1.3-.04c.55-1.06,1.02-2.19,1.35-3.27l1.25.36c-.33.95-.72,1.89-1.23,2.91.88-.03,1.62-.08,2.2-.12-.31-.45-.45-.65-.9-1.25l.97-.57c.71.73,1.41,1.63,2.22,2.9l-1.18.81c-.21-.43-.36-.69-.51-.91-.51.09-1.59.21-2.21.28.63.45,1.08.87,1.72,1.64l-.97.93c-.29-.39-.46-.6-.9-1.08v2.83c0,.35.12.44.58.44.44,0,.68-.06.78-.23.11-.18.12-.63.15-1.41l1.15.39c-.03,1.29-.15,1.94-.42,2.21-.24.25-.76.38-1.71.38-1.36,0-1.79-.24-1.79-1.04ZM133.44,21.03l1.09-.56c.69,1.21,1.59,2.22,2.73,3.12l-.96,1.14c-1.2-1.09-2.22-2.41-2.86-3.7ZM134.91,29.13l1.09-.56c.62.98,1.09,2.06,1.44,3.19l-1.19.71c-.45-1.47-.87-2.55-1.35-3.34Z"/>
        <path d="M138.28,25.45c2.55-1,4.44-2.64,5.75-4.94h1.7c1.38,1.94,3.4,3.46,6.01,4.53l-.92,1.25c-.9-.4-1.77-.88-2.57-1.42v1.05h-6.42v-.84c-.84.6-1.74,1.12-2.67,1.54l-.89-1.17ZM148.65,32.07c-2.82.42-6.09.78-9.03,1l-.45-1.44c.69-.03,1.57-.08,2.07-.12.51-.9.97-1.84,1.38-2.9h-3.55v-1.29h11.91v1.29h-6.69c-.45,1.01-.93,1.94-1.42,2.81,1.92-.14,3.43-.25,4.88-.42-.38-.42-.83-.9-1.49-1.48l1.25-.69c1.26,1.1,2.47,2.37,3.48,3.66l-1.32.92c-.45-.63-.53-.72-1-1.33ZM147.94,24.66c-1.2-.84-2.28-1.83-3.06-2.87-.69,1.12-1.5,2.04-2.5,2.87h5.57Z"/>
        <path d="M157.99,31.17c2.99-.31,4.59-1.38,4.59-2.88,0-.95-.64-1.85-1.92-1.85-.67,0-1.5.18-2.46.38-.94.2-2.23.5-3.21.73l-.4-1.41c.96-.21,2.08-.44,3.28-.68,1.05-.21,2.05-.39,2.85-.39,2.17,0,3.42,1.36,3.42,3.13,0,2.31-1.8,3.76-5.28,4.29l-.87-1.33Z"/>
        <path d="M172.05,28.33c0-1.67,1.05-3.23,3.02-4.56-2.88.27-4.68.42-6.81.58l-.19-1.57c3.12-.12,7.92-.41,11.43-.98l.3,1.53c-2.08.29-2.79.51-4,1.47-1.38,1.08-2.21,2.19-2.21,3.55,0,1.71,1.37,2.6,4.04,2.94l-.67,1.46c-2.99-.42-4.89-1.86-4.89-4.42Z"/>
        <path d="M183.6,29.73c0-1.32,1-2.5,2.88-3.69-.62-1.41-1.31-3.21-1.71-4.98l1.57-.38c.27,1.41.89,3.25,1.44,4.62,1.11-.58,2.43-1.19,3.88-1.79-.39-.9-.78-1.52-1.25-2.16l.88-.53c.54.66.92,1.31,1.33,2.18l-.82.48.67,1.44c-3.95,1.35-7.35,3.1-7.35,4.63,0,.94.79,1.51,2.98,1.51,1.32,0,2.92-.1,4.67-.44l.27,1.6c-1.78.3-3.61.36-4.78.36-3.46,0-4.68-1.16-4.68-2.88ZM192.06,20.71l.9-.53c.58.71.96,1.32,1.37,2.16l-.96.52c-.42-.92-.78-1.53-1.31-2.16Z"/>
        <path d="M196.8,32.04c2.04-4.32,3.56-7.62,5.27-11.5l1.54.58c-1.04,2.04-1.91,3.81-2.81,5.71.8-.69,1.65-1.02,2.33-1.02,1.04,0,1.38.83,1.38,2.64,0,1.94.24,2.58,1.02,2.58,1.05,0,2.05-1.27,2.95-3.99l1.23,1.19c-1.04,2.8-2.35,4.3-4.17,4.3s-2.52-1.23-2.52-3.57c0-1.27-.12-1.6-.58-1.6-.53,0-1.37.67-2.01,1.47-.76.93-1.15,1.65-2.2,4l-1.43-.79Z"/>
        <path d="M211.41,29.49c1.35-2.04,2.19-3.66,2.8-5.29-.99.09-1.93.15-2.67.17l-.19-1.42c1-.02,2.19-.08,3.38-.19.22-.77.45-1.56.66-2.43l1.53.38c-.2.66-.38,1.27-.57,1.86.89-.12,1.73-.27,2.42-.45l.27,1.42c-.78.18-1.95.36-3.18.51-.73,2.04-1.6,3.92-3.03,6.27l-1.41-.81ZM214.48,30.79c0-1.14,1.06-2.06,2.67-2.06.36,0,.75.03,1.14.09-.03-.49-.06-1.08-.06-1.36,0-.42.06-1.15.51-1.92l1.33.77c-.29.58-.33.99-.33,1.41,0,.47.03.9.04,1.43,1.07.34,2.16.88,3.15,1.47l-.72,1.31c-.78-.56-1.58-1.02-2.35-1.35v.24c0,1.4-1,2.25-2.58,2.25-1.39,0-2.8-.71-2.8-2.26ZM217.27,31.63c.69,0,1.11-.31,1.11-.94,0-.12,0-.29-.01-.48-.34-.09-.69-.14-1-.14-.79,0-1.33.29-1.33.77,0,.52.55.79,1.25.79ZM219.54,24.42l.67-1.2c1.37.52,2.46,1.14,3.48,2.13l-.82,1.18c-1.16-1.06-2.04-1.59-3.33-2.11Z"/>
        <path d="M226.23,26.8c0-.52.38-1.26,1.02-1.92l1.05.51c-.4.36-.64.67-.64.88,0,.33.43.48,1.5.48h.22c.06-.36.11-.73.17-1.14.06-.45.13-.93.2-1.43-1-.01-2.01-.07-2.9-.19l-.07-1.42c1.05.15,2.11.24,3.15.24.12-.93.24-1.8.3-2.43l1.56.21c-.11.52-.24,1.32-.38,2.17.92-.04,1.83-.15,2.74-.31l.09,1.42c-.89.15-2.04.26-3.06.29-.07.52-.13,1.02-.19,1.47-.04.38-.09.72-.12,1.04,1.06-.1,2.17-.3,3.03-.57l.33,1.41c-1.11.24-2.37.39-3.51.47-.04.55-.08.96-.08,1.21,0,1.38.62,2.16,2.07,2.14,1.54-.01,2.92-1.09,2.92-2.89,0-.93-.33-1.68-.93-2.69l1.56-.06c.66,1.1.88,2.17.88,2.94,0,2.65-1.84,4.2-4.47,4.2-2.43,0-3.54-1.21-3.54-3.33,0-.35.03-.84.09-1.46h-.36c-1.96,0-2.64-.56-2.64-1.25Z"/>
        <path d="M246.13,31.48c2.75-.69,4.38-2.37,4.38-4.5s-1.47-3.52-3.6-3.66c-.11,1.69-.38,3.16-.84,4.6-.72,2.25-2,3.48-3.36,3.48s-2.52-1.4-2.52-3.31c0-3.48,2.88-6.21,6.42-6.21,3.25,0,5.49,1.98,5.49,5.08,0,2.69-1.65,4.68-4.74,5.75l-1.23-1.23ZM242.76,29.8c.77,0,1.41-.9,1.88-2.38.41-1.32.65-2.49.74-3.96-2.07.52-3.64,2.42-3.64,4.65,0,.92.49,1.69,1.03,1.69Z"/>
        <path d="M254.79,29.49c1.35-2.04,2.19-3.66,2.8-5.29-.99.09-1.93.15-2.67.17l-.19-1.42c1-.02,2.19-.08,3.38-.19.22-.77.45-1.56.66-2.43l1.53.38c-.2.66-.38,1.27-.57,1.86.89-.12,1.73-.27,2.42-.45l.27,1.42c-.78.18-1.95.36-3.18.51-.73,2.04-1.6,3.92-3.03,6.27l-1.41-.81ZM257.86,30.79c0-1.14,1.06-2.06,2.67-2.06.36,0,.75.03,1.14.09-.03-.49-.06-1.08-.06-1.36,0-.42.06-1.15.51-1.92l1.33.77c-.29.58-.33.99-.33,1.41,0,.47.03.9.04,1.43,1.06.34,2.16.88,3.15,1.47l-.72,1.31c-.78-.56-1.58-1.02-2.35-1.35v.24c0,1.4-1,2.25-2.58,2.25-1.39,0-2.8-.71-2.8-2.26ZM260.65,31.63c.69,0,1.11-.31,1.11-.94,0-.12,0-.29-.01-.48-.34-.09-.69-.14-1-.14-.79,0-1.33.29-1.33.77,0,.52.55.79,1.25.79ZM262.92,24.42l.67-1.2c1.37.52,2.46,1.14,3.48,2.13l-.82,1.18c-1.16-1.06-2.04-1.59-3.33-2.11Z"/>
        <path d="M275.05,31.48c2.75-.69,4.38-2.37,4.38-4.5s-1.47-3.52-3.6-3.66c-.11,1.69-.38,3.16-.84,4.6-.72,2.25-2,3.48-3.36,3.48s-2.52-1.4-2.52-3.31c0-3.48,2.88-6.21,6.42-6.21,3.25,0,5.49,1.98,5.49,5.08,0,2.69-1.65,4.68-4.74,5.75l-1.23-1.23ZM271.68,29.8c.77,0,1.41-.9,1.88-2.38.41-1.32.65-2.49.74-3.96-2.07.52-3.64,2.42-3.64,4.65,0,.92.49,1.69,1.03,1.69Z"/>
        <path d="M283.92,31.8c1.28-2.39,2.07-4.33,2.71-6.57-.92.13-1.77.25-2.43.36l-.25-1.45c.69-.06,1.96-.2,2.98-.35.24-1.04.45-2.11.65-3.25l1.53.24c-.19.93-.4,1.86-.64,2.82.42-.03.81-.06,1.12-.06,1.44,0,2.4.88,2.4,2.68,0,1.29-.12,2.91-.45,4.27-.38,1.56-1.28,1.96-2.17,1.96-.71,0-1.4-.13-2.01-.36l-.12-1.65c.7.35,1.38.48,1.83.48.58,0,.89-.31,1.11-1.35.2-.88.3-1.99.3-3.06s-.43-1.59-1.18-1.59c-.27,0-.62.03-1.16.09-.71,2.62-1.48,4.83-2.8,7.51l-1.41-.73ZM292.53,23.38l1.28-.84c1.04,1.47,1.75,3.19,2.34,5.46l-1.44.81c-.56-2.29-1.1-3.92-2.18-5.43Z"/>
        <path d="M298.17,29.49c1.35-2.04,2.19-3.66,2.8-5.29-.99.09-1.93.15-2.67.17l-.19-1.42c1-.02,2.19-.08,3.38-.19.22-.77.45-1.56.66-2.43l1.53.38c-.2.66-.38,1.27-.57,1.86.89-.12,1.73-.27,2.42-.45l.27,1.42c-.78.18-1.95.36-3.18.51-.73,2.04-1.6,3.92-3.03,6.27l-1.41-.81ZM301.24,30.79c0-1.14,1.06-2.06,2.67-2.06.36,0,.75.03,1.14.09-.03-.49-.06-1.08-.06-1.36,0-.42.06-1.15.51-1.92l1.33.77c-.29.58-.33.99-.33,1.41,0,.47.03.9.04,1.43,1.06.34,2.16.88,3.15,1.47l-.72,1.31c-.78-.56-1.58-1.02-2.35-1.35v.24c0,1.4-1,2.25-2.58,2.25-1.39,0-2.8-.71-2.8-2.26ZM304.03,31.63c.69,0,1.11-.31,1.11-.94,0-.12,0-.29-.01-.48-.34-.09-.69-.14-1-.14-.79,0-1.33.29-1.33.77,0,.52.55.79,1.25.79ZM306.3,24.42l.67-1.2c1.37.52,2.46,1.14,3.48,2.13l-.82,1.18c-1.16-1.06-2.04-1.59-3.33-2.11Z"/>
        <path d="M317.11,28.36c-.02-2.2,2.85-2.31,2.85-4.03,0-.84-.78-1.27-1.86-1.27-.79,0-1.77.25-2.71.75l-.09-1.59c1.14-.44,2.24-.68,3.21-.68,1.95,0,3.34.9,3.34,2.48,0,2.74-3.01,2.68-3.1,4.56l-.02.42h-1.6v-.63ZM316.78,31.38c0-.66.49-1.23,1.21-1.23s1.21.57,1.21,1.23-.5,1.21-1.21,1.21-1.21-.56-1.21-1.21Z"/>
      </g>
      <g>
        <path class="cls-1" d="M324.62,144.97c1.79.14,1.22,2.12.34,3.27-.18.24-.54.27-.77.08-1.56-1.33-1.01-3.46.43-3.34Z"/>
        <path class="cls-1" d="M324.52,145.76c-.31,0-.56-.25-.56-.56v-3.55l-.89-1.24c-.18-.25-.12-.61.13-.79.25-.18.61-.12.79.13l1,1.39c.07.1.11.21.11.33v3.73c0,.31-.25.56-.56.56Z"/>
        <path class="cls-7" d="M309.76,171.36c1.34-.08,2.63-.26,3.88-.53,9.79-2.16,10.15-7.15,10.02-11.31-.13-4.16-1.03-19.07-13.04-19.88-12.01-.81-15.11,8.74-17.43,11.84s-10.78,12.79,5.09,18.2c1.55.53,3.09.93,4.6,1.21"/>
        <polygon class="cls-6" points="321.69 136.09 315.6 135.52 318.31 141 324.51 141.66 321.69 136.09"/>
        <rect class="cls-6" x="315.03" y="139.18" width="6.62" height="2.88" transform="translate(156.5 -167.47) rotate(38.45)"/>
        <path class="cls-13" d="M289.54,157.29c5.03.33,7.93,5.64,6.07,11.34-4.9-2.67-7.64-5.38-6.07-11.34Z"/>
        <path class="cls-13" d="M323.15,159.41c-5.8-.8-10.25,4.19-9.34,10.68,6.16-1.72,9.86-3.98,9.34-10.68Z"/>
        <ellipse class="cls-1" cx="301.52" cy="159.59" rx="1.82" ry="1.68" transform="translate(96.97 432.62) rotate(-81.05)"/>
        <ellipse class="cls-1" cx="311.6" cy="160.64" rx="1.68" ry="1.82" transform="translate(-7.72 15.95) rotate(-2.9)"/>
        <path class="cls-1" d="M301.36,149.98c1.65-.67,3.13-.04,3.82,1.25.16.3-.14.56-.46.4-1.03-.52-2.05-.78-3.16-.99-.37-.07-.51-.53-.2-.66Z"/>
        <path class="cls-1" d="M314.44,152.49c-1.22-1.29-2.83-1.33-4-.45-.27.21-.11.57.26.56,1.16-.05,2.19.14,3.29.41.37.09.68-.27.45-.52Z"/>
        <path class="cls-1" d="M309.76,171.92c-.3,0-.55-.23-.56-.53-.02-.31.22-.58.53-.6,1.29-.08,2.57-.25,3.79-.52,9.84-2.17,9.68-7.33,9.58-10.74-.13-4.28-.81-7.98-2.03-11-2.08-5.2-5.61-8-10.49-8.33-9.65-.65-13.25,5.48-15.63,9.54-.48.82-.9,1.53-1.31,2.07-.11.15-.24.32-.38.51-1.66,2.17-4.75,6.2-3.58,10.07.84,2.78,3.8,5.06,8.79,6.76,1.5.51,3.02.91,4.52,1.19.31.06.51.35.45.66s-.35.51-.66.45c-1.55-.29-3.12-.71-4.67-1.23-5.35-1.82-8.55-4.35-9.5-7.5-1.34-4.42,2.11-8.92,3.77-11.08.14-.18.26-.35.38-.5.37-.49.77-1.18,1.24-1.97,2.37-4.04,6.34-10.8,16.68-10.1,5.35.36,9.2,3.4,11.46,9.03,1.26,3.14,1.97,6.98,2.11,11.39.14,4.6-.54,9.69-10.46,11.88-1.28.28-2.61.47-3.97.54-.01,0-.02,0-.03,0Z"/>
        <path class="cls-1" d="M300.6,158.95c-.06,0-.12-.02-.17-.06-.75-.59-1.13-1.2-1.42-2.25-.04-.15.05-.31.2-.35.15-.04.31.05.35.2.29,1.06.65,1.51,1.23,1.96.12.1.14.27.05.4-.06.07-.14.11-.22.11Z"/>
        <path class="cls-1" d="M300.41,159.54c-.79,0-1.64-.46-2.32-1.25-.1-.12-.09-.3.03-.4.12-.1.3-.09.4.03.62.73,1.39,1.12,2.05,1.05.15-.02.29.09.31.25.02.15-.09.29-.25.31-.07,0-.15.01-.22.01Z"/>
        <path class="cls-1" d="M312.78,160.12c-.14,0-.26-.1-.28-.24-.02-.15.09-.3.24-.32.66-.09,1.42-.66,1.85-1.39.08-.13.25-.18.39-.1.13.08.18.25.1.39-.52.88-1.43,1.54-2.26,1.66-.01,0-.03,0-.04,0Z"/>
        <path class="cls-1" d="M313.85,161.37c-.37,0-.75-.07-1.11-.24-.14-.06-.2-.23-.14-.37.06-.14.23-.2.37-.14.85.39,1.82.09,2.47-.24.14-.07.31-.01.38.13.07.14.01.31-.13.38-.5.25-1.16.48-1.85.48Z"/>
        <g>
          <path class="cls-4" d="M311.39,165.24c-.67-1.82-3.62-3.78-5.13-3.57s-4.67,2.04-5.66,1.99-1.67-.72-1.79,1.58c-.11,2.31,1.69,3.49,4.1,2.64,3.35,1.91,9.62.49,8.48-2.64Z"/>
          <path class="cls-4" d="M311.39,167.61c-.74,3.66-4.9,5.8-6.16,5.26s-2.84-1.41-1.46-4.59c2.49.53,6.87-.11,6.98-1.62.11-1.51.63.95.63.95Z"/>
          <path class="cls-11" d="M305.01,168.6c-.72,1.34-.37,3.05,1.82,1.98s2.19-2.27,2.19-2.27c0,0,1.44-.72-.48,0s-3.53.29-3.53.29Z"/>
          <path class="cls-1" d="M306.5,169.31c-1.05,0-2.18-.32-3.35-.98-2.28.65-3.54.04-4.21-.59-.84-.8-1.15-2.08-.82-3.34.33-1.27.9-1.38,1.78-1.4.64-.01,1.62-.04,3.2-.87,3.5-1.84,5.55-.78,7.54,1.37.19.2.17.51-.03.7s-.51.17-.7-.03c-1.78-1.92-3.39-2.73-6.36-1.17-1.79.94-2.9.97-3.64.98-.68.02-.69.03-.85.66-.24.9-.02,1.84.55,2.38.71.68,1.9.78,3.44.3.13-.04.28-.02.4.05,1.91,1.13,4.66,1.8,6.84-1.37.13-.19.38-.27.59-.18,0,0,.71.29,1.35.43.27.06.43.32.37.59s-.32.44-.59.37c-.42-.09-.85-.23-1.14-.34-1.22,1.62-2.71,2.44-4.39,2.44Z"/>
          <path class="cls-1" d="M305.81,173.42c-.6,0-1.17-.14-1.69-.42-.84-.45-1.38-1.1-1.59-1.91-.43-1.61.6-3.27.64-3.34.14-.23.45-.3.68-.16.23.14.3.45.16.68,0,.01-.84,1.38-.52,2.57.15.55.51.97,1.11,1.29.85.46,1.91.39,2.98-.19,1.5-.82,3.12-2.78,3.33-5.32.02-.27.26-.47.53-.45.27.02.47.26.45.53-.21,2.56-1.72,4.96-3.84,6.11-.75.41-1.51.61-2.23.61Z"/>
        </g>
        <path class="cls-1" d="M320.06,144.82c-.12,0-.25-.04-.35-.12-.24-.19-.29-.55-.09-.79l2.24-2.84c.12-.15.31-.23.5-.21l1.19.13-2.21-4.36-4.77-.45.69,1.4c.09.19.07.42-.05.59l-1.8,2.39c-.19.25-.54.3-.79.11-.25-.19-.3-.54-.11-.79l1.59-2.11-.99-1.99c-.09-.18-.08-.4.04-.57.12-.17.31-.26.52-.24l6.09.57c.19.02.36.13.45.31l2.82,5.57c.09.18.08.41-.04.58-.12.17-.32.26-.52.24l-1.91-.2-2.04,2.59c-.11.14-.28.21-.44.21Z"/>
      </g>
      <g>
        <path class="cls-8" d="M41.92,19.18c5.99-4.81,10.66-4.4,11.63-2.77.89,1.5-.2,9.39-9.11,4.98"/>
        <path class="cls-5" d="M46.15,21.76c2.15-3.69,6.52-2.97,7.64-2.44-1.95,3.62-3.96,4.96-7.64,2.44Z"/>
        <path class="cls-1" d="M49.15,23.33c-1.31,0-2.94-.38-4.99-1.39-.3-.15-.42-.51-.28-.82.15-.3.52-.42.82-.28,3.32,1.64,5.84,1.68,7.29.12,1.3-1.4,1.35-3.69,1.02-4.24-.21-.35-.72-.62-1.4-.75-.91-.16-4.27-.39-9.33,3.68-.26.21-.65.17-.86-.09-.21-.26-.17-.65.09-.86,3.68-2.96,7.53-4.43,10.31-3.92,1.04.19,1.83.66,2.23,1.32.64,1.09.43,3.95-1.18,5.69-.75.81-1.93,1.54-3.74,1.54Z"/>
        <path class="cls-8" d="M47.4,33.41c1.64-16.82-17.11-22.8-25.64-13.47-2.97,3.25-5.19,9.02-4.06,15.77-3.29,3.25-2.73,7.92,2.42,10.46,3.1,1.53,6.19,2.19,13.34,2.19,6.63,0,14.3-2.8,16.45-6.93,1.2-2.31.78-5.72-2.5-8.03Z"/>
        <path class="cls-2" d="M37.18,15.78c-.6-4.19-4.15-6.52-4.34-.47"/>
        <path class="cls-2" d="M25.5,16.85c-.51-4.2,2.31-7.38,4.07-1.58"/>
        <path class="cls-8" d="M21.04,19.9c-6.66-3.82-11.21-2.69-11.91-.92-.65,1.62,2.36,9.82,10.47,4.08"/>
        <ellipse class="cls-1" cx="36.66" cy="35.35" rx="1.44" ry="1.56" transform="translate(-5.05 6.13) rotate(-8.95)"/>
        <path class="cls-5" d="M17.77,23.72c-2.15-3.69-7.03-2.78-8.16-2.25,1.95,3.62,4.47,4.77,8.16,2.25Z"/>
        <path class="cls-5" d="M30.6,15.3c1.23,7.46-2.33,14.45-12.53,14.45,0-11.42,12.53-14.45,12.53-14.45Z"/>
        <path class="cls-5" d="M32.84,15.31c0,8.41,6.81,12.72,13.84,13.25,0-11.42-13.84-13.25-13.84-13.25Z"/>
        <path class="cls-5" d="M16.62,42.17c13.81-6.39,25.45-3.61,33.28-.74-3.13,7.57-29.25,10.15-33.28.74Z"/>
        <path class="cls-1" d="M33.45,48.98c-7.59,0-10.64-.79-13.61-2.26-2.68-1.33-4.37-3.31-4.74-5.59-.32-1.98.37-3.96,1.94-5.63-1.1-7.13,1.47-12.92,4.26-15.97,4.25-4.65,11.25-5.93,17.42-3.18,3.01,1.34,5.47,3.51,7.11,6.28,1.79,3.02,2.53,6.54,2.2,10.49,3.38,2.56,3.63,6.22,2.4,8.6-2.36,4.54-10.49,7.26-16.99,7.26ZM32.08,16.13c-3.76,0-7.35,1.46-9.87,4.22-2.64,2.89-5.06,8.42-3.91,15.26.03.2-.03.39-.17.53-1.44,1.42-2.08,3.13-1.81,4.79.3,1.88,1.75,3.54,4.07,4.69,2.8,1.38,5.71,2.13,13.07,2.13,6.88,0,14.01-2.96,15.91-6.6,1.03-1.98.75-5.1-2.31-7.25-.18-.13-.28-.34-.26-.56.71-7.25-2.49-13.19-8.56-15.89-2.01-.89-4.11-1.33-6.15-1.33Z"/>
        <ellipse cx="36.66" cy="35.35" rx="1.44" ry="1.56" transform="translate(-5.05 6.13) rotate(-8.95)"/>
        <ellipse class="cls-1" cx="28.99" cy="35.71" rx="1.56" ry="1.44" transform="translate(-8.14 62.86) rotate(-87.1)"/>
        <path class="cls-1" d="M14.39,25.69c-1.46,0-2.58-.54-3.4-1.18-2.09-1.64-2.9-4.58-2.43-5.75.29-.72.99-1.3,1.99-1.65,2.66-.93,6.69-.08,10.79,2.27.29.17.39.54.22.83-.17.29-.54.39-.83.22-5.62-3.23-8.91-2.48-9.78-2.18-.65.23-1.11.57-1.26.95-.21.53.31,2.97,2.06,4.35,1.89,1.49,4.48,1.14,7.49-.99.27-.19.65-.13.85.15.19.27.13.65-.15.85-2.23,1.58-4.07,2.14-5.55,2.14Z"/>
        <path class="cls-1" d="M37.18,16.39c-.3,0-.56-.22-.6-.52-.32-2.23-1.48-3.66-2.12-3.62-.31.02-.93.69-1,3.09-.01.34-.3.59-.63.59-.34-.01-.6-.29-.59-.63.11-3.61,1.4-4.22,2.15-4.27.03,0,.06,0,.09,0,1.46,0,2.94,2.06,3.31,4.67.05.33-.18.64-.52.69-.03,0-.06,0-.09,0Z"/>
        <path class="cls-1" d="M25.5,17.45c-.3,0-.57-.23-.6-.54-.32-2.66.61-5.08,2.07-5.39.74-.15,2.14.1,3.19,3.56.1.32-.08.66-.41.76-.32.1-.66-.08-.76-.41-.7-2.3-1.46-2.78-1.77-2.72-.62.13-1.38,1.81-1.11,4.05.04.33-.2.64-.53.68-.02,0-.05,0-.07,0Z"/>
        <path class="cls-1" d="M37.93,26.88c-.65-1.09-1.64-1.26-2.41-.7-.18.13-.11.42.12.44.71.07,1.33.3,1.98.61.22.1.44-.14.31-.35Z"/>
        <path class="cls-1" d="M27.03,27.29c.65-1.09,1.64-1.26,2.41-.7.18.13.11.42-.12.44-.71.07-1.33.3-1.98.61-.22.1-.44-.14-.31-.35Z"/>
        <circle class="cls-1" cx="34.3" cy="41.29" r=".57"/>
        <circle class="cls-1" cx="32.52" cy="41.29" r=".57"/>
        <ellipse class="cls-3" cx="33.06" cy="44.61" rx="1.19" ry="1.28" transform="translate(-15.47 71.59) rotate(-82.53)"/>
        <path class="cls-1" d="M33.09,46.22c-.08,0-.16,0-.24-.02-.94-.12-1.61-.94-1.49-1.83.12-.88.97-1.5,1.91-1.38h0c.94.12,1.61.94,1.49,1.83-.11.81-.83,1.4-1.67,1.4ZM33.03,43.85c-.41,0-.77.27-.82.64-.05.41.28.8.75.86.47.06.89-.22.94-.64.05-.41-.28-.8-.75-.86-.04,0-.08,0-.13,0Z"/>
      </g>
    </g>
  </g>
</svg>