<?xml version="1.0" encoding="UTF-8"?>
<svg id="_レイヤー_2" data-name="レイヤー 2" xmlns="http://www.w3.org/2000/svg" width="374" height="77.36" viewBox="0 0 374 77.36">
  <defs>
    <style>
      .cls-1 {
        fill: #fff;
      }

      .cls-2 {
        fill: #9abbbd;
      }

      .cls-3 {
        fill: #739b9e;
      }
    </style>
  </defs>
  <g id="_レイヤー_2-2" data-name="レイヤー 2">
    <g>
      <rect class="cls-2" x="0" y="0" width="374" height="77.36"/>
      <rect class="cls-1" x="7.58" y="14.39" width="358.85" height="51.32" rx="25.57" ry="25.57"/>
      <g>
        <path class="cls-3" d="M123.37,38.55h2.13c.67,0,1.09-.03,1.54-.09v1.63c-.48-.04-.93-.07-1.56-.07h-1.62c.86,1.5,2.1,2.74,3.58,3.58-.48.48-.69.78-.99,1.5-.62-.43-1.05-.85-1.62-1.5-.74-.85-1.05-1.32-1.53-2.22.03.54.04,1,.04,1.44v1.81c0,.67.03,1.2.09,1.67h-1.67c.06-.46.09-1,.09-1.68v-1.71c0-.4.01-.88.04-1.48-.92,1.65-1.94,2.76-3.39,3.73-.37-.71-.58-1-.9-1.36,1.54-.89,2.8-2.17,3.67-3.78h-.95c-.64,0-1.11.03-1.57.09v-.6c-.26.36-.44.69-.62,1.21-.38-.58-.6-1.05-.88-1.8.03.47.06,1.27.06,1.91v3.69c0,.77.03,1.32.09,1.77h-1.67c.06-.46.09-1.02.09-1.77v-3.1c0-.57.01-.93.1-1.86-.43,1.46-.87,2.43-1.51,3.41-.18-.68-.38-1.11-.67-1.6.72-.92,1.47-2.61,1.92-4.35h-.57c-.44,0-.69.02-.96.06v-1.53c.24.04.51.06.96.06h.72v-1.16c0-.76-.01-1.14-.08-1.5h1.65c-.06.39-.08.8-.08,1.5v1.16h.44c.36,0,.54-.02.78-.06v1.42c.57-1.02,1.05-2.52,1.09-3.49l1.46.38c-.06.16-.1.34-.21.79-.08.27-.1.4-.18.69h1.16v-.99c0-.61-.03-.99-.09-1.36h1.68c-.06.36-.09.77-.09,1.36v.99h1.69c.72,0,1.14-.03,1.54-.09v1.58c-.42-.04-.9-.08-1.54-.08h-1.69v1.81ZM120.23,36.74c-.25.62-.39.9-.81,1.6q-.36-.38-1.17-.94c.12-.17.17-.24.24-.35-.2-.03-.44-.04-.71-.04h-.38c.34.79.71,1.4,1.37,2.28v-.83c.45.06.87.09,1.56.09h1.53v-1.81h-1.64Z"/>
        <path class="cls-3" d="M131.69,37.19c-.96,0-1.38.02-1.75.06v-1.65c.49.07.93.09,1.72.09h8.32c.75,0,1.23-.03,1.75-.09v1.65c-.49-.04-.91-.06-1.75-.06h-3.36v2.5h2.77c.63,0,1.08-.02,1.54-.08v1.64c-.48-.06-.78-.08-1.5-.08h-2.82v2.98h3.84c.75,0,1.27-.03,1.91-.09v1.71c-.63-.08-1.11-.1-1.88-.1h-9.17c-.85,0-1.32.03-1.95.1v-1.71c.5.06,1.08.09,1.91.09h3.66v-2.98h-2.58c-.76,0-1.14.02-1.63.08v-1.64c.43.06.76.08,1.51.08h2.7v-2.5h-3.25ZM134.33,32.79c1.48.51,1.98.71,3.73,1.54l-1.08,1.29c-1.46-.82-2.54-1.29-3.83-1.67l1.17-1.17Z"/>
        <path class="cls-3" d="M144.67,39.02c.33.03.46.04.81.04h.27c.34-.45.41-.54.69-.95-.58-.87-1.01-1.41-1.8-2.23l.77-1.2c.24.27.3.36.46.54.54-.9.92-1.74,1.08-2.4l1.42.61c-.12.17-.15.23-.29.5-.5.99-.79,1.52-1.35,2.32.21.26.31.39.51.68.76-1.2,1.08-1.8,1.32-2.48l1.38.69c-.04.08-.15.24-.6.93.67-.42,1.28-1,1.77-1.75.34-.53.55-.9.69-1.31l1.4.67s-.06.08-.08.1c-.08.12-.09.12-.15.24-1.02,1.75-1.53,2.37-2.7,3.27-.32-.53-.54-.79-.99-1.14-1.35,2.05-1.46,2.21-1.98,2.85.74-.03.87-.05,1.52-.1-.14-.32-.2-.47-.42-.95l.94-.42c.45.81.77,1.67,1.07,2.79l-1.09.42c-.06-.29-.08-.38-.14-.63q-.15.03-.43.06s-.13.01-.57.06v4.54c0,.71.03,1.11.09,1.5l-1.56.02c.06-.44.09-.87.09-1.5v-4.45q-1.71.12-1.98.18l-.15-1.51ZM146.47,41.21c-.09,1.96-.22,2.91-.58,4.29l-1.25-.54c.39-1.24.53-2.1.6-3.94l1.23.2ZM148.84,44.01c-.08-1.25-.15-1.79-.41-2.79l1.08-.3c.27,1.14.36,1.62.42,2.42.2-.71.25-1.12.3-1.88l1.29.3c-.18,1.67-.38,2.46-.88,3.75l-1.3-.77c.25-.48.33-.63.48-1.05l-.97.31ZM156.26,40.35c-.3-.63-.41-.84-.55-1.14-1.08.18-1.14.18-2.67.33.76.46,1.48,1,2.1,1.57l-1,1.05c-.76-.87-1.21-1.23-2.25-1.85l.88-.75q-.24.03-.62.06c-.45.04-.78.08-.99.1-.36.03-.5.04-.74.09l-.21-1.51c.21.02.32.02.5.02h.45c.72-1.14,1.39-2.52,1.6-3.35l1.49.47-.6,1.15c-.54,1.05-.66,1.24-.9,1.63,1.44-.09,1.63-.1,2.29-.19-.27-.44-.42-.66-.87-1.27l1.14-.63c.95,1.23,1.41,1.93,2.24,3.37l-1.29.84ZM153.25,41.31c-.03.33-.04.61-.04.91v2.16c0,.3.03.31.67.31.29,0,.57-.06.63-.14.15-.18.2-.46.21-1.51.45.27.78.38,1.29.44-.18,2.35-.38,2.56-2.49,2.56-.71,0-1.18-.09-1.44-.26-.2-.12-.27-.34-.27-.78v-2.62c0-.36-.03-.72-.08-1.08h1.52ZM155.23,32.94c.45.74.83,1.22,1.35,1.67.57.52.99.81,1.56,1.1-.34.4-.55.75-.86,1.38-1.23-.79-2.08-1.63-3.07-3.04q-.08-.1-.25-.36l1.27-.74ZM156.67,41c.64,1.31.94,2.06,1.41,3.62l-1.41.67c-.35-1.62-.65-2.5-1.26-3.75l1.26-.54Z"/>
        <path class="cls-3" d="M163,37.68c-.96.6-1.29.78-2.31,1.24-.25-.58-.48-.97-.84-1.48,1.53-.6,2.54-1.15,3.62-1.99.96-.74,1.68-1.52,2.28-2.43h1.69c.77,1.06,1.35,1.63,2.45,2.4,1.21.87,2.4,1.48,3.71,1.95-.41.61-.6,1.02-.81,1.62-.9-.39-1.46-.69-2.44-1.32v1.12c-.39-.04-.75-.06-1.29-.06h-4.82c-.4,0-.84.02-1.23.06v-1.11ZM162.2,41.39c-.75,0-1.23.03-1.7.09v-1.66c.45.04,1.02.07,1.7.07h8.95c.72,0,1.22-.03,1.7-.07v1.66c-.48-.06-.96-.09-1.7-.09h-4.93c-.48,1.1-.93,1.94-1.5,2.79q2.49-.14,4.56-.36c-.47-.51-.72-.78-1.52-1.59l1.42-.63c1.54,1.56,2.17,2.29,3.33,3.82l-1.39.92c-.41-.61-.53-.79-.86-1.24-1.2.15-2.05.25-2.59.3-1.5.15-4.23.4-4.84.45-.81.04-1.53.12-1.86.19l-.22-1.75c.43.03.62.04.81.04.12,0,.56-.02,1.29-.06.71-1.08,1.16-1.94,1.53-2.88h-2.17ZM169.03,37.23c.2,0,.33,0,.63-.02-1.31-.87-2.15-1.65-3.02-2.8-.75,1.02-1.62,1.84-2.98,2.8.24.02.36.02.58.02h4.78Z"/>
        <path class="cls-3" d="M179.53,41.88c.04.07.06.13.06.21,0,.1-.01.12-.15.45-.3.69-.66,1.77-.84,2.58-.04.17-.09.25-.15.29-.08.03-.58.1-.75.1h-.06c-.07,0-.18-.02-.3-.02-.2,0-.24-.04-.3-.23-.29-.97-.51-2.98-.51-4.5,0-1.65.1-2.67.52-4.92.15-.81.23-1.26.29-1.75.63.12,1.17.27,1.62.48.25.1.33.18.33.33,0,.1-.01.15-.18.39-.5.79-1.05,3.98-1.05,6.12,0,.34.02.81.06,1.56.42-.94.57-1.23.92-1.96.13.31.22.46.5.87ZM182.78,42.95c.48.25,1.05.34,2.05.34s1.53-.07,2.46-.34c.09-.03.17-.04.21-.04.1,0,.18.06.19.21.08.51.14,1.11.14,1.41,0,.15-.04.2-.25.26-.81.21-1.64.31-2.64.31-1.38,0-2.23-.17-2.94-.58-.66-.41-1.35-1.23-1.35-1.64,0-.21.31-.49,1.12-.99.27.54.52.81,1,1.06ZM181.73,35.3c.33.08,1.29.14,2.03.14.99,0,1.98-.08,2.91-.24q.07-.01.13-.01c.1,0,.15.04.18.16.03.15.08.81.08,1.22,0,.22-.04.3-.21.33-.62.12-1.63.2-2.71.2-1.29,0-2.45-.08-2.59-.17-.08-.04-.11-.15-.11-.42,0-.41.04-1,.08-1.12.01-.06.06-.09.15-.09.01,0,.04,0,.07.01Z"/>
        <path class="cls-3" d="M191.86,34.79c.45.04,1.27.07,2.19.09.66-.76,1.08-1.4,1.41-2.11l1.7.38c-.06.07-.09.09-.14.18-.33.48-.78,1.08-1.18,1.54,2.29-.04,2.71-.06,4-.15-.45-.36-.62-.49-1.2-.93l1.2-.65c1.18.85,1.95,1.53,3.24,2.82l-1.29.78q-.65-.73-.86-.96c-.88.09-1.93.17-3.09.23-.18.39-.29.6-.51.98h4.83c.81,0,1.35-.03,1.71-.09v1.52c-.45-.04-.95-.07-1.7-.07h-1.98c.93.85,2.15,1.39,3.99,1.77-.39.44-.58.78-.79,1.41-2.21-.67-3.93-1.77-5.04-3.18h-2.01c-1.25,1.32-2.4,1.99-4.84,2.89-.3-.6-.46-.82-.92-1.27,1.82-.48,2.66-.85,3.71-1.62h-1.67c-.64,0-1.23.03-1.71.07v-1.52c.41.06.93.09,1.7.09h3.03c.21-.31.38-.58.48-.9-1.41.06-1.8.06-3.3.07-.29.02-.53.02-.75.04l-.21-1.41ZM200.62,41.18c-1.31.98-2.06,1.41-3.24,1.94-1.17.49-2.4.85-4.17,1.17-.24-.63-.39-.89-.76-1.29,2.05-.23,4-.82,5.49-1.68.74-.41,1.17-.72,1.41-1.01l1.28.87ZM198.95,39.75c-1.21.79-1.59,1.02-2.08,1.27-1.1.55-2.24.93-3.71,1.23-.22-.62-.34-.84-.71-1.25,1.68-.23,3.04-.69,4.25-1.42.4-.25.83-.57,1.02-.77l1.23.93ZM202.52,42.71c-1.48,1.16-2.04,1.52-3.09,2.04-1.69.83-3.42,1.32-6.01,1.71-.18-.57-.34-.87-.74-1.4,2.93-.25,5.04-.87,7.04-2.04.62-.36,1.17-.79,1.5-1.17l1.3.85Z"/>
        <path class="cls-3" d="M211.31,35.42c.72,0,1.17-.02,1.61-.06-.04.52-.04.56-.06,2.34-.03,2.97-.18,5.21-.43,6.42-.27,1.27-.69,1.65-1.86,1.65-.36,0-.9-.04-1.5-.1-.05-.71-.08-.9-.27-1.54.54.12,1.08.19,1.41.19.41,0,.52-.1.66-.58.15-.54.3-1.81.38-3.4q.06-1.25.07-3.39h-1.38c-.12,2.01-.31,3.31-.72,4.78-.46,1.68-1.09,2.96-2.21,4.4-.39-.62-.71-1.01-1.18-1.47.92-1.06,1.48-2.13,1.92-3.58.36-1.21.55-2.35.67-4.12h-.72c-.63,0-1.05.03-1.46.07v-1.68c.38.06.85.09,1.59.09h.65q.01-.39.01-1.2c0-.58-.03-.93-.09-1.28h1.72c-.06.3-.08.47-.08.95-.01.28-.01.52-.04,1.53h1.3ZM215.3,45.84h-1.6c.04-.45.07-.99.07-1.65v-8.27c0-.66-.01-1.03-.06-1.5.42.04.74.06,1.29.06h2.75c.58,0,.88-.02,1.3-.06-.06.46-.08.82-.08,1.5v8.25c0,.71.03,1.15.09,1.6h-1.63v-1.02h-2.13v1.08ZM215.3,43.32h2.13v-7.4h-2.13v7.4Z"/>
        <path class="cls-3" d="M226.49,33.65c.38.1.48.18.48.35,0,.1-.01.15-.09.36-.17.44-.29,1.2-.34,2.25-.12,2.42-.18,4.29-.18,5.77,0,.48.04.84.12,1.08.17.5.69.75,1.53.75,1.35,0,2.62-.55,3.79-1.65.54-.51.87-.92,1.42-1.74.09.48.21.79.54,1.47.04.12.08.21.08.35,0,.27-.29.63-1.04,1.3-1.49,1.33-3.13,2.02-4.86,2.02-1.14,0-1.98-.28-2.52-.82-.57-.6-.79-1.38-.79-2.86,0-1.17.02-2.07.13-5.56.02-.52.03-.84.03-.98,0-1.27-.01-1.65-.1-2.29.76.03,1.35.09,1.8.21Z"/>
        <path class="cls-3" d="M239.54,37.1c-.39.09-.53.13-1.06.33-.2.08-.3.1-.39.1-.33,0-.63-.61-.9-1.9.96-.04,1.3-.09,2.97-.34,1.8-.27,4.08-.62,5.28-.77,1.35-.18,2.43-.36,3-.48.11-.03.15-.03.23-.03.19,0,.27.09.4.47.12.31.21.76.21.98,0,.18-.06.24-.27.24-.32,0-.6.03-.88.08-2.54.42-4.56,2.64-4.56,4.98,0,1.75,1.38,2.91,3.72,3.12.21.01.29.09.29.27,0,.38-.15,1.09-.29,1.42-.07.17-.19.24-.39.24s-.64-.09-1.11-.22c-2.55-.75-3.89-2.37-3.89-4.67,0-1.25.41-2.4,1.19-3.39.42-.54.78-.84,1.63-1.43-1.96.33-4.04.72-5.17,1.01Z"/>
        <path class="cls-3" d="M258.13,40.35c-.54,1-1.16,1.99-1.71,2.8-.62.88-1.32,1.33-2.05,1.33-1.08,0-1.82-.89-1.82-2.21,0-1.14.57-2.11,1.63-2.74.71-.41,1.77-.69,2.62-.69h.15c.76-1.56.96-1.98,1.47-3.15-1.38.06-2.22.18-2.83.39-.03.02-.08.02-.1.02-.25,0-.5-.78-.57-1.9.33.06.65.09,1.05.09.51,0,1.38-.04,2.29-.13q.86-.08,1.05-.2c.12-.06.2-.09.27-.09.19,0,.5.24.83.65.24.31.39.57.39.67,0,.12-.06.23-.24.41-.22.24-.92,1.53-1.79,3.36,1.43.28,1.96.45,3,.9.08-.52.14-1.14.14-1.56,0-.19-.02-.42-.05-.67.65.09,1.19.19,1.62.3.27.08.36.15.36.27,0,.1-.03.21-.12.39-.13.28-.18.48-.29,1.09-.04.31-.09.52-.18.96.76.48,1.42.94,1.72,1.23.08.08.12.15.12.23,0,.42-.64,1.4-.92,1.4-.08,0-.15-.04-.27-.14-.41-.36-.9-.78-1.2-1-.51,1.08-1.04,1.77-1.86,2.48-.71.58-1.68,1.12-2.04,1.12-.12,0-.25-.06-.36-.15-.04-.04-.04-.06-.24-.33-.22-.35-.42-.51-.78-.68,1.2-.42,1.79-.72,2.43-1.27.64-.57,1.14-1.26,1.47-2.07-1.02-.56-2.03-.9-3.21-1.09ZM254.08,42.15c0,.36.13.58.38.58.33,0,.92-.73,1.86-2.35-1.42.15-2.23.79-2.23,1.77Z"/>
        <path class="cls-3" d="M274.78,38.27c.03,1.12.06,1.71.21,3.21,1.26.41,1.86.66,2.74,1.14,1.19.67,1.79,1.12,1.79,1.33,0,.18-.2.52-.54,1.02-.22.33-.39.48-.51.48-.08,0-.13-.03-.24-.14-1.06-1.02-1.92-1.57-3.18-2.08-.03.91-.2,1.39-.63,1.84-.53.52-1.44.81-2.62.81-1.96,0-3.17-.87-3.17-2.29,0-1.52,1.32-2.48,3.38-2.48.5,0,.93.03,1.3.08-.15-2.46-.19-3.65-.21-5.85-.01-.87-.04-1.39-.13-2.1.69.02,1.38.09,1.79.19.24.08.33.15.33.31,0,.08-.02.12-.06.24-.17.39-.22.96-.25,2.62q.12,0,.58-.03c.72-.04,1.74-.23,2.88-.54.04-.01.08-.01.12-.01.09,0,.12.03.18.18.15.36.32,1.1.32,1.35,0,.12-.06.17-.2.21-1.15.27-2.77.5-3.66.5h-.21ZM271.84,42.59c-1.02,0-1.63.34-1.63.91,0,.53.51.8,1.46.8,1.15,0,1.67-.41,1.67-1.35v-.12c-.5-.18-.92-.24-1.49-.24Z"/>
        <path class="cls-3" d="M287.8,37.08c.97-.25,1.62-.35,2.33-.35,2.13,0,3.36,1.26,3.36,3.42,0,1.88-.81,3.39-2.44,4.59-.87.65-2.19,1.29-2.62,1.29-.2,0-.24-.04-.55-.5-.23-.34-.45-.55-.83-.82,1.72-.58,2.44-.96,3.22-1.64.9-.79,1.35-1.75,1.35-2.89,0-1.22-.57-1.91-1.57-1.91-.81,0-1.86.31-3.23.98-.19.09-.3.17-.55.35-.06.03-.12.06-.18.06-.29,0-.77-.84-1.09-1.96.55-.04.84-.12,2.82-.61ZM288.8,33.42c.54.17,1.35.32,2.08.41.3.03.41.04,1.17.07.23,0,.29.06.29.23,0,.5-.11,1.31-.2,1.46-.03.09-.1.12-.21.12-.34,0-1.56-.17-2.26-.31-1.18-.24-2.22-.54-2.43-.71-.04-.04-.08-.1-.08-.17,0-.12.32-.93.46-1.21.08-.12.12-.15.21-.15q.08,0,.96.27Z"/>
        <path class="cls-3" d="M306.19,44.72c0,.66-.52,1.18-1.18,1.18s-1.18-.52-1.18-1.18.52-1.19,1.18-1.19,1.18.52,1.18,1.19ZM305.66,42.5h-1.33l-.41-8.98h2.16l-.42,8.98Z"/>
      </g>
      <g>
        <g>
          <path class="cls-3" d="M42.39,35.58c.02-1.97.63-3.49,1.83-4.55,1.13-1.05,2.47-1.58,4.03-1.58s2.98.53,4.11,1.58c1.15,1.06,1.74,2.58,1.77,4.56v9.42c-.04,1.96-.63,3.48-1.77,4.54-1.13,1.05-2.5,1.59-4.11,1.61-1.56-.02-2.91-.56-4.03-1.61-1.2-1.06-1.81-2.57-1.83-4.53v-9.44ZM51.18,35.77c-.06-2.14-1.03-3.23-2.92-3.27-1.9.04-2.87,1.13-2.91,3.27v9.07c.04,2.16,1.01,3.25,2.91,3.27,1.89-.02,2.87-1.11,2.92-3.27v-9.07Z"/>
          <path class="cls-3" d="M60.93,38.64h1.02c1.01,0,1.8-.29,2.36-.87.56-.56.84-1.29.84-2.18-.02-.9-.31-1.64-.87-2.22-.56-.56-1.28-.85-2.16-.87-.63,0-1.21.21-1.73.63-.55.42-.92,1.07-1.11,1.96h-2.97c.15-1.58.77-2.91,1.86-4,1.07-1.07,2.35-1.62,3.83-1.64,1.88.02,3.38.64,4.48,1.86,1.06,1.19,1.6,2.6,1.62,4.22,0,.82-.15,1.61-.44,2.37-.34.76-.95,1.44-1.83,2.04.9.59,1.55,1.29,1.95,2.11.38.82.57,1.68.57,2.58-.02,2-.62,3.58-1.8,4.73-1.16,1.18-2.66,1.78-4.48,1.8-1.41,0-2.66-.47-3.74-1.4-1.09-.94-1.79-2.29-2.11-4.06h2.97c.26.71.64,1.29,1.12,1.73.49.46,1.15.69,1.96.69.87,0,1.6-.31,2.2-.93.61-.58.92-1.4.94-2.47-.02-1.09-.33-1.93-.94-2.53-.6-.58-1.35-.87-2.27-.87h-1.27v-2.69Z"/>
        </g>
        <path class="cls-3" d="M33.72,42.84c-.76.79-1.8,1.41-3.01,1.81-.17-.32-.31-.52-.56-.82,1.2-.29,2.21-.79,2.94-1.47h-1.5c-.05.18-.06.22-.13.43l-1.01-.02c.24-.56.38-1.02.49-1.58.08-.39.14-.77.14-.95.17.02.4.03.82.03h1.78l-.02-.58h-1.93c-.34,0-.56,0-.8.04v-.83c-.1.08-.13.12-.26.23-.17-.29-.35-.5-.56-.69.74-.57,1.16-1.12,1.35-1.76l.93.17c-.11.23-.14.29-.25.47h1.11c.41,0,.64-.02.85-.04v.7c.34-.4.55-.78.7-1.3l.92.16q-.07.17-.22.49h1.65c.46,0,.67,0,.95-.05v.9c-.26-.04-.52-.05-.9-.05h-.68c.23.33.23.35.38.59l-.71.2h.41c.43,0,.59,0,.81-.03-.03.16-.04.3-.04.61v.91c0,.31,0,.45.04.63-.2-.02-.47-.03-.81-.03h-1.99v.57h2.47c.33,0,.52,0,.74-.03-.02.11-.02.17-.03.26t-.03.26s-.02.22-.05.55c-.09.86-.14,1.07-.31,1.27-.17.2-.43.26-1.02.26-.25,0-.43,0-.8-.03-.05-.36-.11-.56-.22-.85.33.04.74.08.95.08.47,0,.49-.05.55-1.01h-2.22l.02,1.45c0,.46.02.68.06.95h-1.02c.04-.25.05-.4.05-.75v-.22l-.02-.96ZM32.48,38.94c-.11-.29-.22-.5-.39-.8h-.48c-.21.29-.4.5-.68.77.21.03.38.04.79.04h.75ZM33.69,41.04h-1.77c-.03.19-.04.21-.12.57h1.9v-.57ZM34.18,38.94c-.13-.16-.31-.33-.56-.51.15-.12.2-.15.32-.27-.15,0-.32-.02-.49-.02h-.48c.11.17.17.26.34.58l-.71.22h1.58ZM36.01,38.94c-.1-.22-.26-.51-.44-.79h-.53c-.23.33-.42.55-.69.79h1.67ZM34.59,40.28h1.87v-.58h-1.88v.58Z"/>
        <path class="cls-3" d="M79.63,44.74v-.47h-5.38v.47h-1.01c.04-.28.05-.64.05-1.12v-5.46c0-.42-.02-.69-.05-1.04.32.04.59.05,1.02.05h5.36c.42,0,.7,0,1.02-.05-.04.32-.04.6-.04,1.04v5.47c0,.47.02.89.04,1.11h-1ZM74.25,43.42h5.38v-5.39h-5.38v5.39ZM77.85,39.01c.38,0,.6,0,.83-.03-.02.21-.03.41-.03.68v2.06c0,.29,0,.47.03.68-.26-.02-.47-.03-.83-.03h-1.85c-.43,0-.57,0-.84.03.03-.23.04-.42.04-.68v-2.06c0-.25,0-.45-.04-.68.22.02.46.03.84.03h1.85ZM76.11,41.58h1.63v-1.76h-1.63v1.76Z"/>
      </g>
      <rect class="cls-2" x="95.06" y="32.52" width="1.42" height="15.06"/>
    </g>
  </g>
</svg>